<svg width="395" height="394" viewBox="0 0 395 394" fill="none" xmlns="http://www.w3.org/2000/svg">
<path d="M68.1999 210.482C-4.06662 252.458 -4.06662 320.542 68.1999 362.518C140.423 404.494 257.577 404.494 329.8 362.518C402.067 320.542 402.067 252.458 329.8 210.482C257.577 168.506 140.423 168.506 68.1999 210.482Z" fill="black" fill-opacity="0.2"/>
<path d="M363.365 239.21C361.205 242.907 358.01 247.968 354.995 253.47C350.45 261.656 346.401 270.767 346.986 277.5V278.205L346.446 288.548L346.356 290L343.881 288.592L337.716 285.159C336.006 275.564 334.971 265.925 337.581 251.269C339.966 237.713 349.685 222.881 357.83 222.045C365.434 221.297 368.719 230.055 363.365 239.21Z" fill="#D98D70"/>
<path opacity="0.3" d="M363.365 239.21C361.205 242.907 358.01 247.968 354.995 253.47C350.45 261.656 346.401 270.767 346.986 277.5V278.205L346.446 288.548L346.356 290L343.881 288.592L337.716 285.159C336.006 275.564 334.971 265.925 337.581 251.269C339.966 237.713 349.685 222.881 357.83 222.045C365.434 221.297 368.719 230.055 363.365 239.21Z" fill="#D98D70"/>
<path d="M341.206 284.949C341.422 284.861 341.551 284.685 341.508 284.465C338.447 259.355 348.535 236.228 358.839 227.858C359.011 227.725 359.054 227.417 358.925 227.197C358.752 226.977 358.451 226.933 358.235 227.109C347.802 235.611 337.456 259.135 340.56 284.597C340.603 284.861 340.862 285.037 341.12 284.993C341.149 284.993 341.178 284.979 341.206 284.949Z" fill="white"/>
<path d="M371.884 255.287C371.135 260.146 362.768 265.89 357.274 273.798C352.279 280.911 350.114 288.156 350.281 292L347.492 290.321L345.203 288.907C343.912 271.059 348.949 259.395 355.484 253.652C357.066 252.238 358.731 251.134 360.437 250.427C367.763 247.334 372.842 249.411 371.884 255.287Z" fill="#F3C6B5"/>
<path opacity="0.6" d="M371.884 255.287C371.135 260.146 362.768 265.89 357.274 273.798C352.279 280.911 350.114 288.156 350.281 292L347.492 290.321L345.203 288.907C343.912 271.059 348.949 259.395 355.484 253.652C357.066 252.238 358.731 251.134 360.437 250.427C367.763 247.334 372.842 249.411 371.884 255.287Z" fill="#F3C6B5"/>
<path d="M347.615 287.956C347.778 287.912 347.901 287.735 347.901 287.558C348.188 267.092 359.044 255.952 364.739 252.902C364.985 252.77 365.066 252.504 364.944 252.239C364.862 252.018 364.575 251.93 364.37 252.062C358.061 255.378 347.287 266.65 347 287.514C347 287.779 347.205 288 347.451 288C347.505 288 347.56 287.985 347.615 287.956Z" fill="white"/>
<path d="M77.8243 249.467C80.1207 253.416 83.5428 258.874 86.7398 264.775C91.5577 273.561 95.9254 283.367 95.25 290.6L95.295 291.354L95.8354 302.447L95.9254 304L98.6271 302.491L105.156 298.853C107.002 288.514 108.083 278.176 105.336 262.424C102.725 247.87 92.4133 231.896 83.7229 231.053C75.5729 230.21 72.1058 239.616 77.8243 249.467Z" fill="#D98D70"/>
<path opacity="0.3" d="M77.8243 249.467C80.1207 253.416 83.5428 258.874 86.7398 264.775C91.5577 273.561 95.9254 283.367 95.25 290.6L95.295 291.354L95.8354 302.447L95.9254 304L98.6271 302.491L105.156 298.853C107.002 288.514 108.083 278.176 105.336 262.424C102.725 247.87 92.4133 231.896 83.7229 231.053C75.5729 230.21 72.1058 239.616 77.8243 249.467Z" fill="#D98D70"/>
<path d="M100.737 296.957C100.523 296.87 100.396 296.652 100.438 296.435C103.636 270.033 93.0197 245.676 82.1905 236.89C81.9773 236.716 81.9347 236.412 82.1052 236.194C82.2758 235.977 82.5742 235.933 82.7874 236.107C93.7872 245.067 104.659 269.772 101.419 296.522C101.376 296.826 101.12 297 100.865 297C100.808 296.971 100.765 296.957 100.737 296.957Z" fill="white"/>
<path d="M68.1237 266.717C68.9911 271.949 78.2285 278.067 84.3434 286.492C89.8946 294.118 92.2798 301.877 92.1063 306V305.956L95.1855 304.182L97.7876 302.675C99.1753 283.61 93.5808 271.151 86.3384 264.988C84.5603 263.48 82.7388 262.328 80.8306 261.53C72.7208 258.204 67.0829 260.465 68.1237 266.717Z" fill="#F3C6B5"/>
<path opacity="0.6" d="M68.1237 266.717C68.9911 271.949 78.2285 278.067 84.3434 286.492C89.8946 294.118 92.2798 301.877 92.1063 306V305.956L95.1855 304.182L97.7876 302.675C99.1753 283.61 93.5808 271.151 86.3384 264.988C84.5603 263.48 82.7388 262.328 80.8306 261.53C72.7208 258.204 67.0829 260.465 68.1237 266.717Z" fill="#F3C6B5"/>
<path d="M96.3165 301.957C96.1456 301.872 96.0175 301.702 96.0175 301.489C95.6757 280.483 83.629 269.064 77.3066 265.911C77.0503 265.826 76.9221 265.527 77.0503 265.272C77.1784 265.016 77.4775 264.931 77.7338 265.059C84.7397 268.467 96.6582 280.057 97 301.489C97 301.744 96.7864 301.957 96.4874 302C96.4304 302 96.3735 301.986 96.3165 301.957Z" fill="white"/>
<path d="M199.015 378L175 364.117L325.765 277L350 290.751L199.015 378Z" fill="#64040B"/>
<path d="M186.634 303.72C213.789 319.347 213.789 344.686 186.634 360.312C159.479 375.896 115.477 375.896 88.366 360.312C61.2113 344.686 61.2113 319.347 88.366 303.72C115.477 288.093 159.479 288.093 186.634 303.72Z" fill="#64040B"/>
<path d="M384.275 182.323L374.762 198.983L380.487 202L390 185.34L384.275 182.323ZM381.588 173.696C381.72 172.676 384.142 169.233 384.539 168.553C384.891 167.873 381.764 165.918 379.386 167.788C376.964 169.616 375.775 171.571 375.07 174.121L367.142 169.913C365.469 169.021 363.927 170.126 363.443 171.061C362.694 172.336 363.135 173.483 363.443 173.993C363.443 173.993 361.637 173.526 360.624 175.268C360.052 176.288 360.184 177.733 361.241 178.626C361.241 178.626 360.404 178.923 359.699 180.156C359.215 181.005 359.523 183.003 360.624 183.598C360.624 183.598 359.876 184.15 359.303 185.17C358.598 186.36 359.127 188.188 360.844 189.123C362.562 190.015 373.969 196.05 373.969 196.05L382.161 181.728C382.161 181.728 381.456 174.716 381.588 173.696Z" fill="#E0E0E0"/>
<path d="M48 173.61L54.0755 193L60.5388 190.979L54.4202 171.589L48 173.61ZM56.7039 171.417L61.9607 188.099C61.9607 188.099 74.8011 184.057 76.7401 183.455C78.6791 182.854 79.5839 181.048 79.1531 179.629C78.7653 178.468 78.1189 177.737 78.1189 177.737C79.3685 177.35 80.101 175.33 79.7994 174.341C79.3685 172.922 78.5498 172.406 78.5498 172.406C79.7994 171.718 80.2303 170.213 79.8856 169.053C79.2392 166.989 77.3003 167.075 77.3003 167.075C77.688 166.645 78.4206 165.527 77.9466 164.022C77.6019 162.991 76.2661 161.486 74.4133 162.088L65.494 164.882C65.3216 162.045 64.5029 159.766 62.4778 157.358C60.4526 154.908 56.8763 156.37 57.0917 157.143C57.3502 157.917 59.0738 162.002 58.9876 163.12C58.9014 164.194 56.7039 171.417 56.7039 171.417Z" fill="#E0E0E0"/>
<path d="M11.1783 127.324L18.5841 125.709L24.1932 130.724C24.8944 131.319 25.9899 130.894 26.0775 130.002L26.7787 122.649L33.4395 119.037C34.2283 118.57 34.1845 117.422 33.3081 117.04L26.2967 114.15L24.8067 106.883C24.6314 105.99 23.4483 105.693 22.8348 106.373L17.8391 111.94L10.258 111.09C9.33775 111.005 8.68043 111.982 9.16247 112.747L13.0626 119.08L9.86361 125.794C9.51304 126.644 10.258 127.537 11.1783 127.324Z" fill="#E0E0E0"/>
<path fill-rule="evenodd" clip-rule="evenodd" d="M34.1275 92.4822L32.1643 88.8972L27.8454 88.2997C27.4528 88.2599 27.1474 88.0209 27.0601 87.7022C26.9293 87.3836 27.0165 87.0251 27.2783 86.7861L30.4629 83.9978L29.7213 80.0543C29.634 79.6958 29.8085 79.3771 30.1139 79.178C30.3757 78.9788 30.8119 78.939 31.1173 79.0983L35 80.9705L38.8827 79.0983C39.2317 78.939 39.6243 78.9788 39.9297 79.178C40.2351 79.3771 40.366 79.6958 40.3223 80.0543L39.5807 83.9978L42.7217 86.7861C42.9835 87.0251 43.0707 87.3836 42.9399 87.7022C42.8526 88.0607 42.5472 88.2599 42.1546 88.3395L37.8357 88.8972L35.8725 92.4822C35.698 92.8008 35.3926 93 35 93C34.9127 93 34.811 92.9867 34.6946 92.9602C34.4765 92.8805 34.2584 92.7212 34.1275 92.4822ZM39.1881 79.6161L35 81.6078L30.8556 79.6161C30.7247 79.5365 30.5502 79.5365 30.4629 79.6161C30.3321 79.6958 30.2884 79.8153 30.2884 79.9348L31.1173 84.1969L27.7145 87.1844C27.6273 87.3039 27.5836 87.4234 27.6273 87.5429C27.6709 87.6624 27.8018 87.7421 27.9326 87.7819L32.6006 88.3794L34.651 92.2432C34.7382 92.3627 34.8691 92.4423 35 92.4423C35.1309 92.4423 35.2618 92.3627 35.349 92.2432L37.443 88.3794L42.0674 87.7819C42.2419 87.7421 42.3291 87.6624 42.3727 87.5429C42.4164 87.4234 42.3727 87.3039 42.2855 87.1844L38.9263 84.1969L39.7116 79.9746C39.7552 79.8153 39.6679 79.6958 39.5807 79.6161C39.5516 79.5896 39.508 79.5763 39.4498 79.5763C39.3626 79.5498 39.2753 79.563 39.1881 79.6161Z" fill="#E0E0E0"/>
<path fill-rule="evenodd" clip-rule="evenodd" d="M10.7737 203.267L9.79023 198.932L5.63266 197.312C5.27503 197.18 5.0068 196.874 5.0068 196.48C4.96209 196.085 5.14091 195.735 5.45385 195.56L9.34318 193.327L9.65611 188.904C9.65611 188.553 9.92434 188.203 10.2373 188.072C10.5949 187.94 10.9973 187.984 11.3102 188.247L14.6631 191.137L19.0442 190.042C19.4018 189.955 19.8041 190.086 20.0724 190.393C20.2959 190.655 20.3406 191.05 20.2065 191.4L18.4183 195.429L20.8324 199.195C21.0559 199.501 21.0559 199.895 20.8324 200.202C20.6535 200.552 20.2959 200.727 19.8936 200.684L15.4231 200.289L12.5172 203.661C12.2937 203.968 11.8914 204.055 11.5337 203.968C11.4145 203.968 11.3251 203.939 11.2655 203.88C10.9973 203.749 10.8631 203.53 10.7737 203.267ZM19.1783 190.655L14.529 191.794L10.9079 188.685C10.7737 188.597 10.6396 188.597 10.5055 188.641C10.3714 188.685 10.282 188.816 10.282 188.948L9.92435 193.677L5.81149 196.085C5.67737 196.173 5.58796 196.304 5.58796 196.436C5.63267 196.567 5.72207 196.699 5.85619 196.742L10.3267 198.494L11.3996 203.136C11.4443 203.267 11.5337 203.355 11.6678 203.399C11.802 203.442 11.9808 203.399 12.0702 203.267L15.1548 199.633L19.9383 200.07C20.1171 200.07 20.2512 200.027 20.2959 199.895C20.3853 199.764 20.3853 199.633 20.2959 199.501L17.7477 195.516L19.6253 191.181C19.7147 191.006 19.67 190.874 19.5806 190.787C19.5508 190.758 19.521 190.728 19.4912 190.699C19.4018 190.641 19.2975 190.626 19.1783 190.655Z" fill="#E0E0E0"/>
<path fill-rule="evenodd" clip-rule="evenodd" d="M364.774 98.2299L363.79 93.9461L359.633 92.3287C359.275 92.1539 359.007 91.8479 359.007 91.4982C358.962 91.1047 359.141 90.7551 359.498 90.5802L363.343 88.3071L363.656 83.9359C363.656 83.5425 363.924 83.2365 364.282 83.0616C364.595 82.9305 364.997 83.0179 365.31 83.2365L368.708 86.1652L373.044 85.0724C373.402 84.985 373.804 85.1161 374.072 85.3784C374.296 85.6844 374.385 86.0778 374.207 86.4275L372.418 90.4491L374.832 94.1646C375.056 94.4706 375.056 94.9077 374.832 95.2137C374.654 95.5197 374.296 95.6946 373.894 95.6509L369.423 95.2574L366.517 98.667C366.294 98.9293 365.891 99.0605 365.534 98.973C365.444 98.9439 365.355 98.9002 365.265 98.8419C364.997 98.7108 364.863 98.4922 364.774 98.2299ZM373.223 85.6407L368.529 86.8209L364.908 83.7173C364.774 83.6299 364.64 83.5862 364.505 83.6299C364.371 83.7173 364.282 83.8047 364.282 83.9796L363.924 88.6568L359.811 91.1047C359.677 91.1485 359.588 91.2796 359.633 91.4107C359.633 91.5856 359.722 91.673 359.856 91.7604L364.327 93.5089L365.4 98.0988C365.444 98.2299 365.534 98.3611 365.668 98.3611C365.802 98.4048 365.981 98.361 366.07 98.2736L369.155 94.6455L373.938 95.0826C374.117 95.0826 374.251 94.9952 374.296 94.9078C374.385 94.7766 374.385 94.6018 374.296 94.5143L371.748 90.4928L373.625 86.1652C373.715 86.0341 373.67 85.9029 373.581 85.7718C373.551 85.7427 373.521 85.7135 373.491 85.6844C373.402 85.6552 373.312 85.6407 373.223 85.6407Z" fill="#E0E0E0"/>
<path d="M63 347L21.1162 326L4 332.625L63 347Z" fill="#F4CCBC"/>
<g opacity="0.4">
<path d="M61.8336 347.575L20.5095 325.582L3.62207 332.52L61.8336 347.575Z" fill="#F4CCBC"/>
</g>
<path d="M63 347L25 322.095L32.1793 313L63 347Z" fill="#F4CCBC"/>
<g opacity="0.4">
<path d="M61.8325 347.574L25.5703 322.002L32.4213 312.664L61.8325 347.574Z" fill="#F4CCBC"/>
</g>
<path d="M25 322L25.5487 328.399L63 347L25 322Z" fill="#AE715A"/>
<path d="M20.7544 320C20.7059 320 20.6575 319.983 20.609 319.95C20.4314 319.801 20.2456 319.626 20.0518 319.427C19.9791 319.327 19.9791 319.153 20.076 319.053C20.1729 318.979 20.3183 318.979 20.4152 319.078C20.5929 319.261 20.7625 319.427 20.924 319.576C21.0209 319.651 21.0209 319.801 20.9482 319.925C20.8997 319.975 20.8271 320 20.7544 320Z" fill="#E0E0E0"/>
<path d="M17.5211 317C17.3839 317 17.2466 316.956 17.1551 316.825C16.6367 316.153 16.1182 315.437 15.5997 314.677C15.4625 314.458 15.5082 314.195 15.737 314.064C15.92 313.932 16.2402 313.976 16.3774 314.195C16.8959 314.955 17.3991 315.656 17.8871 316.299C18.0701 316.518 18.0243 316.781 17.7956 316.912C17.7346 316.971 17.6431 317 17.5211 317ZM13.5869 311.171C13.4496 311.171 13.2666 311.084 13.1751 310.952C12.7482 310.222 12.306 309.462 11.8485 308.673C11.757 308.454 11.8027 308.191 12.0315 308.06C12.2602 307.972 12.5347 308.06 12.6719 308.235C13.0989 309.024 13.5411 309.784 13.9986 310.514C14.0901 310.733 14.0443 310.996 13.8156 311.127C13.7546 311.157 13.6784 311.171 13.5869 311.171ZM10.2016 305.036C10.0186 305.036 9.88136 304.948 9.78987 304.773C9.39339 304.013 9.01217 303.224 8.64619 302.406C8.5547 302.187 8.64619 301.924 8.87492 301.837C9.10366 301.705 9.37814 301.837 9.46963 302.056C9.83561 302.845 10.2168 303.619 10.6133 304.378C10.7048 304.598 10.6133 304.861 10.3846 304.992C10.3236 305.021 10.2626 305.036 10.2016 305.036ZM7.27378 298.637C7.13654 298.637 6.95355 298.55 6.86205 298.374C6.52658 297.556 6.20635 296.738 5.90137 295.92C5.80987 295.701 5.94711 295.438 6.17585 295.351C6.40458 295.263 6.67906 295.394 6.77056 295.613C7.07554 296.432 7.39577 297.25 7.73125 298.068C7.82274 298.287 7.6855 298.55 7.45676 298.637C7.39577 298.637 7.33477 298.637 7.27378 298.637ZM4.89493 292.107C4.71194 292.107 4.52895 291.976 4.43746 291.801C4.16298 290.953 3.90375 290.106 3.65976 289.259C3.61402 289.04 3.75126 288.777 3.97999 288.733C4.25447 288.645 4.48321 288.821 4.5747 289.04C4.81869 289.887 5.06267 290.72 5.30665 291.538C5.39815 291.757 5.26091 292.02 5.03217 292.064C4.97118 292.093 4.92543 292.107 4.89493 292.107ZM3.0193 285.358C2.79057 285.358 2.60758 285.227 2.56183 285.052C2.34835 284.204 2.15011 283.342 1.96712 282.466C1.92137 282.247 2.10436 281.984 2.3331 281.94C2.60758 281.896 2.83632 282.072 2.88206 282.291C3.06505 283.138 3.24804 283.985 3.43103 284.833C3.52252 285.095 3.33953 285.315 3.1108 285.358C3.0803 285.358 3.0498 285.358 3.0193 285.358ZM1.69264 278.522C1.4639 278.522 1.28092 278.39 1.23517 278.171C1.20467 277.879 1.15892 277.587 1.09793 277.295C1.03693 276.71 0.975937 276.126 0.914941 275.542C0.869194 275.323 1.05218 275.103 1.28092 275.06C1.5554 275.06 1.78413 275.235 1.78413 275.454C1.87563 276.038 1.95187 276.608 2.01287 277.163C2.04337 277.455 2.08911 277.748 2.15011 278.04C2.15011 278.303 2.01287 278.522 1.73839 278.522C1.73839 278.522 1.72314 278.522 1.69264 278.522ZM0.914941 271.641C0.686205 271.641 0.45747 271.466 0.45747 271.203C0.365976 270.326 0.30498 269.465 0.274481 268.617C0.228734 268.354 0.411723 268.179 0.686205 268.135C0.960688 268.135 1.14368 268.311 1.18942 268.573C1.21992 269.421 1.28092 270.283 1.37241 271.159C1.37241 271.378 1.18942 271.597 0.960687 271.641C0.930189 271.641 0.914941 271.641 0.914941 271.641ZM0.503217 264.673C0.274481 264.673 0.0457463 264.498 0.0457463 264.235C0.0152483 263.358 0 262.496 0 261.649C0 261.386 0.228735 261.211 0.45747 261.211C0.731952 261.211 0.914941 261.386 0.914941 261.649C0.914941 262.496 0.930189 263.358 0.960687 264.235C0.960687 264.454 0.777699 264.673 0.503217 264.673ZM0.548963 257.705C0.548963 257.705 0.533715 257.705 0.503217 257.705C0.274481 257.705 0.0914927 257.53 0.0914927 257.267C0.121991 256.39 0.152489 255.514 0.182987 254.637C0.228734 254.418 0.411723 254.243 0.686205 254.243C0.914941 254.243 1.14367 254.462 1.09793 254.725C1.06743 255.572 1.03693 256.434 1.00643 257.31C1.00643 257.53 0.777698 257.705 0.548963 257.705ZM1.00643 250.781C0.975935 250.781 0.960687 250.781 0.960687 250.781C0.686205 250.781 0.503216 250.561 0.548963 250.298C0.640457 249.422 0.731952 248.56 0.823446 247.713C0.869193 247.45 1.09793 247.275 1.32666 247.318C1.60115 247.362 1.78413 247.581 1.73839 247.8C1.64689 248.648 1.5554 249.51 1.4639 250.386C1.41816 250.605 1.23517 250.781 1.00643 250.781ZM1.92137 243.9C1.89088 243.9 1.86038 243.9 1.82988 243.9C1.60115 243.856 1.41816 243.637 1.4639 243.374C1.61639 242.498 1.76888 241.636 1.92137 240.788C1.96712 240.569 2.2416 240.394 2.47034 240.438C2.69907 240.482 2.88206 240.745 2.83631 240.964C2.68382 241.811 2.53133 242.658 2.37884 243.506C2.3331 243.725 2.15011 243.9 1.92137 243.9ZM3.33953 237.063C3.27854 237.063 3.23279 237.063 3.20229 237.063C2.97356 237.02 2.83632 236.757 2.88206 236.537C3.09555 235.661 3.30903 234.814 3.52252 233.996C3.61401 233.733 3.84275 233.601 4.07148 233.689C4.34597 233.733 4.48321 233.996 4.43746 234.215C4.19348 235.033 3.96474 235.865 3.75126 236.713C3.70551 236.932 3.52252 237.063 3.33953 237.063ZM5.21516 230.358C5.18466 230.358 5.13892 230.358 5.07792 230.358C4.84918 230.27 4.71194 230.008 4.80344 229.788C5.07792 228.941 5.3524 228.108 5.62688 227.29C5.71838 227.071 5.99286 226.94 6.2216 227.027C6.45033 227.115 6.58757 227.334 6.49608 227.597C6.22159 228.386 5.94711 229.204 5.67263 230.051C5.58114 230.227 5.39815 230.358 5.21516 230.358Z" fill="#E0E0E0"/>
<path d="M7.62221 224C7.53726 224 7.45232 223.986 7.36737 223.958C7.04883 223.874 6.92141 223.623 7.04883 223.414C7.26119 223.023 7.49479 222.646 7.74963 222.283C7.87704 222.031 8.25929 221.948 8.57784 222.031C8.89638 222.115 9.08751 222.366 8.96009 222.576C8.70525 222.967 8.45042 223.358 8.19559 223.749C8.13188 223.916 7.87704 224 7.62221 224Z" fill="#E0E0E0"/>
<path d="M349 27.2912L306 11L338.138 36L349 27.2912Z" fill="#F3C6B5"/>
<path opacity="0.1" d="M349 27.2912L306 11L338.138 36L349 27.2912Z" fill="white"/>
<path d="M306 11L350.642 22L361 13.1474L306 11Z" fill="#F3C6B5"/>
<path opacity="0.1" d="M306 11L350.642 22L361 13.1474L306 11Z" fill="white"/>
<path d="M352 22.2754L351.162 34L348.251 27.8906L306 11L352 22.2754Z" fill="#D98D70"/>
<path opacity="0.2" d="M352 22.2754L351.162 34L348.251 27.8906L306 11L352 22.2754Z" fill="black"/>
<path d="M350 34L345 30.4485L347.755 27L350 34Z" fill="#D98D70"/>
<path opacity="0.2" d="M349 27L345 30.4359L346.185 31L349 27Z" fill="black"/>
<path d="M356.383 29C356.299 29 356.215 28.979 356.131 28.937C355.499 28.6432 354.931 28.3914 354.426 28.1815C354.047 28.0556 353.921 27.7408 354.047 27.3631C354.174 27.0483 354.552 26.9223 354.868 27.0483C355.415 27.2581 356.005 27.489 356.636 27.7408C356.952 27.8667 357.078 28.2445 356.952 28.5593C356.888 28.8111 356.636 29 356.383 29Z" fill="#E0E0E0"/>
<path d="M388.519 126C388.459 126 388.415 125.985 388.385 125.956C388.117 125.868 388.027 125.604 388.117 125.383C388.444 124.649 388.787 123.827 389.145 122.916C389.234 122.696 389.457 122.608 389.726 122.696C389.949 122.74 390.039 123.004 389.949 123.225C389.621 124.135 389.294 124.972 388.966 125.736C388.876 125.912 388.698 126 388.519 126ZM391.022 119.348C390.962 119.348 390.918 119.334 390.888 119.304C390.664 119.216 390.53 118.996 390.575 118.776C390.843 117.953 391.096 117.102 391.335 116.221C391.38 116 391.648 115.824 391.871 115.912C392.139 115.956 392.273 116.221 392.184 116.441C391.946 117.351 391.692 118.203 391.424 118.996C391.379 119.216 391.201 119.348 391.022 119.348ZM392.81 112.432C392.78 112.432 392.75 112.432 392.72 112.432C392.497 112.388 392.318 112.168 392.363 111.904C392.542 111.081 392.72 110.215 392.899 109.304C392.944 109.084 393.167 108.908 393.391 108.952C393.659 108.996 393.793 109.216 393.748 109.481C393.599 110.362 393.436 111.228 393.257 112.08C393.212 112.3 393.033 112.432 392.81 112.432ZM393.972 105.428C393.972 105.428 393.957 105.428 393.927 105.428C393.704 105.428 393.525 105.208 393.525 104.943C393.644 104.092 393.734 103.211 393.793 102.3C393.838 102.08 394.061 101.904 394.285 101.904C394.553 101.948 394.732 102.168 394.687 102.388C394.628 103.299 394.538 104.194 394.419 105.076C394.419 105.296 394.195 105.428 393.972 105.428ZM394.508 98.3797C394.24 98.3356 394.061 98.1594 394.061 97.8951C394.091 97.0434 394.106 96.1624 394.106 95.252C394.106 95.0318 394.33 94.8115 394.553 94.8115C394.821 94.8115 395 95.0318 395 95.252C395 96.1624 394.985 97.0581 394.955 97.9392C394.955 98.1594 394.777 98.3797 394.508 98.3797ZM394.464 91.2433C394.195 91.2433 394.017 91.0671 394.017 90.8469C393.957 89.9658 393.883 89.0848 393.793 88.2038C393.793 87.9395 393.972 87.7632 394.24 87.7192C394.464 87.7192 394.687 87.8954 394.687 88.1157C394.777 89.0261 394.836 89.9218 394.866 90.8028C394.911 91.0231 394.732 91.2433 394.464 91.2433ZM393.748 84.1951C393.57 84.1951 393.346 84.0189 393.346 83.7986C393.227 82.9469 393.093 82.0806 392.944 81.1996C392.899 80.9353 393.033 80.715 393.301 80.6709C393.525 80.6269 393.793 80.8031 393.793 81.0234C393.942 81.9338 394.076 82.8295 394.195 83.7105C394.24 83.9308 394.061 84.151 393.838 84.1951C393.808 84.1951 393.778 84.1951 393.748 84.1951ZM392.542 77.1909C392.318 77.1909 392.139 77.0587 392.095 76.8385C391.916 75.9868 391.707 75.1351 391.469 74.2835C391.424 74.0192 391.558 73.7989 391.826 73.7108C392.05 73.6668 392.318 73.7989 392.363 74.0632C392.571 74.9443 392.78 75.8106 392.989 76.6623C393.033 76.8825 392.855 77.1468 392.631 77.1909C392.601 77.1909 392.571 77.1909 392.542 77.1909ZM390.754 70.3188C390.575 70.3188 390.396 70.1867 390.307 70.0105C390.068 69.1588 389.815 68.3072 389.547 67.4555C389.457 67.2352 389.592 66.9709 389.815 66.9269C390.039 66.8388 390.307 66.9709 390.396 67.1912C390.664 68.0428 390.933 68.8945 391.201 69.7462C391.245 69.9664 391.111 70.2307 390.888 70.2748C390.828 70.3042 390.784 70.3188 390.754 70.3188ZM388.474 63.579C388.295 63.579 388.117 63.4468 388.072 63.2706C387.744 62.4777 387.416 61.6554 387.089 60.8037C386.999 60.5834 387.089 60.3191 387.312 60.231C387.58 60.1429 387.804 60.2751 387.893 60.4953C388.251 61.3176 388.578 62.1399 388.876 62.9622C388.966 63.2265 388.876 63.4468 388.608 63.5349C388.578 63.5643 388.534 63.579 388.474 63.579ZM385.748 57.0153C385.569 57.0153 385.39 56.9272 385.345 56.751C384.958 55.958 384.556 55.1651 384.138 54.3722C384.049 54.1519 384.138 53.8876 384.362 53.7995C384.585 53.6674 384.854 53.7555 384.943 53.9757C385.36 54.7686 385.762 55.5763 386.15 56.3986C386.239 56.6188 386.15 56.8831 385.926 56.9712C385.867 57.0006 385.807 57.0153 385.748 57.0153ZM382.351 50.76C382.172 50.76 382.038 50.6718 381.948 50.5397C381.471 49.7761 380.98 49.0419 380.473 48.3371C380.339 48.1169 380.384 47.8526 380.607 47.7204C380.786 47.5882 381.099 47.6323 381.233 47.8085C381.74 48.5427 382.231 49.2916 382.708 50.0551C382.842 50.2754 382.798 50.5397 382.574 50.6718C382.485 50.7306 382.41 50.76 382.351 50.76ZM378.149 44.9451C378.015 44.9451 377.881 44.9011 377.836 44.813C377.27 44.1375 376.689 43.4621 376.093 42.7866C375.914 42.6104 375.914 42.3021 376.138 42.1699C376.316 41.9937 376.585 41.9937 376.763 42.214C377.359 42.8894 377.94 43.5649 378.507 44.2403C378.685 44.4165 378.641 44.7249 378.462 44.857C378.372 44.9158 378.268 44.9451 378.149 44.9451ZM373.277 39.7471C373.158 39.7471 373.053 39.703 372.964 39.6149C372.338 38.9982 371.683 38.3962 370.997 37.8088C370.819 37.6766 370.819 37.3683 370.953 37.1921C371.131 37.0159 371.4 37.0159 371.578 37.148C372.264 37.7354 372.934 38.3374 373.59 38.9541C373.769 39.1303 373.769 39.4387 373.634 39.6149C373.545 39.703 373.411 39.7471 373.277 39.7471ZM367.824 35.1217C367.705 35.1217 367.615 35.0923 367.556 35.0335C366.84 34.5049 366.11 33.991 365.365 33.4917C365.187 33.3596 365.097 33.0512 365.231 32.875C365.41 32.6548 365.678 32.6107 365.857 32.7429C366.632 33.2715 367.377 33.8001 368.092 34.3287C368.271 34.4609 368.315 34.7692 368.181 34.9454C368.092 35.0776 367.958 35.1217 367.824 35.1217ZM361.834 31.157C361.745 31.157 361.67 31.1423 361.611 31.113C360.836 30.6724 360.046 30.2466 359.242 29.8355C359.018 29.7033 358.929 29.439 359.063 29.2187C359.197 28.9985 359.465 28.9544 359.689 29.0425C360.464 29.4537 361.253 29.8942 362.058 30.3641C362.281 30.4962 362.326 30.7605 362.192 30.9368C362.102 31.113 361.968 31.157 361.834 31.157Z" fill="#E0E0E0"/>
<path d="M386.562 131C386.446 131 386.349 130.971 386.272 130.914C385.982 130.785 385.924 130.526 386.098 130.31C386.098 130.31 386.388 129.923 386.91 129.233C387.084 129.018 387.432 128.931 387.722 129.061C387.954 129.147 388.071 129.405 387.954 129.621C387.374 130.397 387.084 130.785 387.084 130.785C386.968 130.914 386.736 131 386.562 131Z" fill="#E0E0E0"/>
<path d="M231 133.455C231 132.846 230.548 132.195 229.688 131.717C227.925 130.761 225.075 130.761 223.312 131.717C222.452 132.195 222 132.846 222 133.455C222 134.106 222 349.861 222 350.513C222 351.164 222.452 351.773 223.312 352.251C225.075 353.25 227.925 353.25 229.688 352.251C230.548 351.773 231 351.164 231 350.513C231 349.861 231 134.106 231 133.455Z" fill="#EBEBEB"/>
<g opacity="0.1">
<path d="M230.751 132.622C230.751 132.011 230.315 131.356 229.486 130.876C227.784 129.916 225.035 129.916 223.333 130.876C222.504 131.356 222.067 132.011 222.067 132.622C222.067 133.276 222.067 349.977 222.067 350.631C222.067 351.286 222.504 351.897 223.333 352.377C225.035 353.38 227.784 353.38 229.486 352.377C230.315 351.897 230.751 351.286 230.751 350.631C230.751 349.977 230.751 133.276 230.751 132.622Z" fill="black"/>
</g>
<path d="M223.312 131.434C222.452 131.724 222 132.118 222 132.487C222 132.882 222.452 133.276 223.312 133.566C225.075 134.145 227.925 134.145 229.688 133.566C230.548 133.276 231 132.882 231 132.487C231 132.118 230.548 131.724 229.688 131.434C227.925 130.855 225.075 130.855 223.312 131.434Z" fill="#E0E0E0"/>
<g opacity="0.1">
<path d="M222.067 216.486L230.751 211.468C230.751 208.559 230.751 205.679 230.751 202.828L222.067 207.846C222.067 210.697 222.067 213.577 222.067 216.486Z" fill="black"/>
</g>
<path d="M311 85.5093C311 84.8547 310.648 84.2437 309.98 83.7201C308.608 82.76 306.392 82.76 305.02 83.7201C304.352 84.2437 304 84.8547 304 85.5093C304 86.1639 304 302.88 304 303.491C304 304.145 304.352 304.8 305.02 305.28C306.392 306.24 308.608 306.24 309.98 305.28C310.648 304.8 311 304.145 311 303.491C311 302.88 311 86.1639 311 85.5093Z" fill="#E0E0E0"/>
<g opacity="0.1">
<path d="M311.828 85.7552C311.828 85.1007 311.392 84.4897 310.563 83.9661C308.861 83.0061 306.112 83.0061 304.41 83.9661C303.581 84.4897 303.145 85.1007 303.145 85.7552C303.145 86.4098 303.145 303.11 303.145 303.721C303.145 304.376 303.581 305.03 304.41 305.51C306.112 306.47 308.861 306.47 310.563 305.51C311.392 305.03 311.828 304.376 311.828 303.721C311.828 303.11 311.828 86.4098 311.828 85.7552Z" fill="black"/>
</g>
<path d="M305.02 83.719C304.352 84.2418 304 84.8519 304 85.5054C304 86.159 304.352 86.7691 305.02 87.2484C306.392 88.2505 308.608 88.2505 309.98 87.2484C310.648 86.7691 311 86.159 311 85.5054C311 84.8519 310.648 84.2418 309.98 83.719C308.608 82.7603 306.392 82.7603 305.02 83.719Z" fill="#E0E0E0"/>
<g opacity="0.1">
<path d="M303.145 169.583L311.828 164.609C311.828 161.7 311.828 158.82 311.828 155.969L303.145 160.987C303.145 163.809 303.145 166.674 303.145 169.583Z" fill="black"/>
</g>
<g opacity="0.1">
<path d="M222.067 295.428L230.751 290.41C230.751 287.501 230.751 284.62 230.751 281.77L222.067 286.788C222.067 289.639 222.067 292.519 222.067 295.428Z" fill="black"/>
</g>
<g opacity="0.1">
<path d="M303.145 248.517L311.828 243.542C311.828 240.604 311.828 237.724 311.828 234.902L303.145 239.877C303.145 242.728 303.145 245.608 303.145 248.517Z" fill="black"/>
</g>
<path d="M343 142.286L198 226V169.757L343 86V142.286Z" fill="#F3C6B5"/>
<path opacity="0.2" d="M198 226L199.866 171.146L343 86L198 169.757V226Z" fill="white"/>
<path d="M193 222.904L198 226V170.268L193 167V222.904Z" fill="#D98D70"/>
<path opacity="0.1" d="M193 222.904L198 226V170.268L193 167V222.904Z" fill="black"/>
<path d="M198.408 170L193 166.699L337.376 83L343 86.1707L198.408 170Z" fill="#BA68C8"/>
<path d="M198 240L204 243.062V299L198 295.938V240Z" fill="#D98D70"/>
<path opacity="0.1" d="M198 240L204 243.062V299L198 295.938V240Z" fill="black"/>
<path d="M204 242.864V299L340 221.136V165L204 242.864Z" fill="#F3C6B5"/>
<path opacity="0.2" d="M320 176L206.008 244.189L204 299V242.668L320 176Z" fill="white"/>
<path d="M203.48 244L198 240.849L334.564 161L340 164.151" fill="#BA68C8"/>
<path d="M198.408 170L193 166.699L337.376 83L343 86.1707L198.408 170Z" fill="#D98D70"/>
<path opacity="0.3" d="M198.408 170L193 166.699L337.376 83L343 86.1707L198.408 170Z" fill="#D98D70"/>
<path d="M203.48 244L198 240.849L334.564 161L340 164.151" fill="#D98D70"/>
<path opacity="0.3" d="M203.48 244L198 240.849L334.564 161L340 164.151" fill="#D98D70"/>
<path fill-rule="evenodd" clip-rule="evenodd" d="M255.949 173.806L263.327 169.604V175.322L250.811 182.47V150.414L255.949 147.468V173.806ZM225.428 164.882L230.566 161.937V193.993L225.428 196.896V183.207L218.138 187.322V201.054L213 204V171.943L218.138 168.998V181.56L225.428 177.402V164.882ZM239.613 183.163L248.308 178.181V183.9L234.474 191.827V159.771L247.869 152.103V157.821L239.613 162.543V169.431L246.507 165.489L245.892 171.467L239.613 175.062V183.163ZM331 131.093V136.811L318.44 143.959V111.946L323.578 109V135.338L331 131.093ZM309.745 116.841L314.927 113.938V133.432C314.927 140.19 312.556 147.598 305.881 151.41C299.557 155.005 297.317 150.154 297.317 143.439V123.945L302.455 121.043V140.104C302.455 145.605 304.124 146.385 306.32 145.172C308.515 143.872 309.745 140.71 309.745 135.945V116.841ZM279.531 143.699C279.531 150.414 276.326 155.655 271.144 158.601L270.221 159.164V171.424L265.083 174.326V142.269C265.698 141.923 269.914 139.41 271.539 138.501C276.853 135.468 279.531 137.591 279.531 143.699ZM274.13 147.165C274.13 144.522 273.339 142.703 271.363 143.786C270.836 144.089 270.441 144.349 270.221 144.522V154.009L271.539 153.229C272.944 152.45 274.13 150.284 274.13 147.165ZM282.035 132.609L295.473 124.985V130.66L287.173 135.382V142.703L294.111 138.761L293.496 144.739L287.173 148.334V161.763L282.035 164.666V132.609Z" fill="#37474F"/>
<path d="M255.337 149L250 151.861V183L263 176.057V170.502L255.337 174.584V149Z" fill="#263238"/>
<path d="M225.735 178.074L218.265 182.128V169.883L213 172.754V204L218.265 201.129V187.744L225.735 183.69V197.075L231 194.246V163L225.735 165.829V178.074Z" fill="#263238"/>
<path d="M239.2 175.697L245.556 171.986L246.178 165.816L239.2 169.884V162.775L247.556 157.902V152L234 159.914V193L248 184.818V178.916L239.2 184.058V175.697Z" fill="#263238"/>
<path d="M323.318 136.123V109L318 111.989V145L331 137.639V131.751L323.318 136.123Z" fill="#263238"/>
<path d="M309.735 137.168C309.735 142.011 308.475 145.197 306.225 146.462C303.975 147.728 302.265 146.899 302.265 141.4V122.157L297 125.08V144.761C297 151.524 299.295 156.412 305.775 152.746C312.57 148.95 315 141.488 315 134.637V115L309.735 117.967V137.168Z" fill="#263238"/>
<path fill-rule="evenodd" clip-rule="evenodd" d="M279 144.71C279 151.57 275.903 156.925 270.897 159.934L270.006 160.51V173.035L265 176V143.249C265.636 142.895 269.709 140.328 271.279 139.399C276.412 136.301 279 138.469 279 144.71ZM273.782 148.25C273.782 145.551 273.018 143.692 271.109 144.798C270.6 145.108 270.218 145.374 270.006 145.551V155.199L271.236 154.446C272.594 153.65 273.782 151.437 273.782 148.25Z" fill="#263238"/>
<path d="M282 165L286.971 162.147V148.949L293.088 145.415L293.683 139.539L286.971 143.414V136.218L295 131.578V126L282 133.493V165Z" fill="#263238"/>
<path d="M291.404 140.983L287.047 143.502V140.983L284.847 142.242V134.904L293 130.17V127L282 133.384V163L284.847 161.306V147.888L291.059 144.283L291.404 140.983Z" fill="#455A64"/>
<path d="M321.123 134.638V111L318 112.636V142L329 136.144V132.958L323.453 135.929V133.389L321.123 134.638Z" fill="#455A64"/>
<path d="M313 132.347V115L309.937 116.686V136.207C309.937 141.131 308.657 144.37 306.371 145.656C304.909 146.455 303.674 146.411 302.943 144.813C301.206 145.213 300.017 143.882 300.017 139.179V122.232L297 123.917V143.926C297 147.342 297.594 150.315 298.966 151.956C300.2 152.134 301.709 151.779 303.629 150.758C310.531 146.899 313 139.268 313 132.347Z" fill="#455A64"/>
<path d="M234 190L247 183.348V180.13L239.74 183.87V181.304L237.238 182.609V174.478L244.253 170.87L244.645 167.565L239.74 170.087V167.522L237.238 168.826V161.913L246.509 157.174V154L234 160.391V190Z" fill="#455A64"/>
<path d="M223.682 184.642L225.974 183.361V194.801L229 193.122V163L225.974 164.678V177.487L218.364 181.727V179.121L216.072 180.402V170.199L213 171.922V202L216.072 200.322V186.32L223.682 182.08V184.642Z" fill="#455A64"/>
<path d="M255.477 172.143L253.089 173.434V149L250 150.691V181L261 174.992V171.698L255.477 174.725V172.143Z" fill="#455A64"/>
<path fill-rule="evenodd" clip-rule="evenodd" d="M268.755 157.81L267.849 158.32V170.343L265 172V143.025C265.604 142.685 269.748 140.221 271.345 139.329C273.115 138.309 274.626 137.926 275.791 138.011C276.612 139.116 277 140.858 277 143.195C277 149.78 273.849 154.921 268.755 157.81ZM273.892 147.826C273.892 145.361 273.158 143.62 271.432 144.384C271.043 143.11 270.266 142.557 268.971 143.237C268.453 143.535 268.108 143.79 267.849 144.002V153.264L269.144 152.542C269.46 152.372 269.763 152.117 270.05 151.777V154.496L271.302 153.774C272.683 153.009 273.892 150.885 273.892 147.826Z" fill="#455A64"/>
<path d="M329 136.462L331 138V131L329 132.538V136.462Z" fill="#37474F"/>
<path d="M324 136L322 134.668V110.288L324 109V136Z" fill="#37474F"/>
<path d="M300 123.283C300 123.283 300 137.531 300 140.186C300 142.885 300.419 144.965 301.581 145.628C302.14 145.938 304 147 304 147V146.956C302.977 146.469 302.372 144.832 302.372 141.513V122L300 123.283Z" fill="#37474F"/>
<path d="M284 147L288 148.369V163L284 161.584V147Z" fill="#37474F"/>
<path d="M291 143.949L294.138 145L295 140L291.492 141.196L291 143.949Z" fill="#37474F"/>
<path d="M288 143L284 141.682V134L288 135.318V143Z" fill="#37474F"/>
<path d="M295 131L293 129.893V127.107L295 126V131Z" fill="#37474F"/>
<path d="M268 158L270 159.342V172L268 170.658V158Z" fill="#37474F"/>
<path d="M268 152.709L270 154V144.291L268 143V152.709Z" fill="#37474F"/>
<path d="M273 144.152C272.591 144.041 272.091 144.078 271.5 144.373C270.955 144.631 270.545 144.852 270.318 145L268 143.93C268.364 143.709 268.758 143.488 269.182 143.266C269.818 143.008 270.364 142.897 270.818 143.119C270.818 143.119 272.591 143.967 273 144.152Z" fill="#263238"/>
<path d="M254 172.808L256 174V149L254 150.234V172.808Z" fill="#37474F"/>
<path d="M261 174.682L263 176V170L261 171.318V174.682Z" fill="#37474F"/>
<path d="M247 156.682L248 158V152L247 153.364V156.682Z" fill="#37474F"/>
<path d="M238 161L240 162.388V170L238 168.612V161Z" fill="#37474F"/>
<path d="M245.246 168.196L245 170.949L246.569 172L247 167L245.246 168.196Z" fill="#37474F"/>
<path d="M238 174L240 175.477V185L238 183.523V174Z" fill="#37474F"/>
<path d="M247 180.318V183.682L248 185V179L247 180.318Z" fill="#37474F"/>
<path d="M229 193.746L231 195V163L229 164.254V193.746Z" fill="#37474F"/>
<path d="M216 181.655L218 183V170L216 171.3V181.655Z" fill="#37474F"/>
<path d="M216 186L218 187.341V202L216 200.659V186Z" fill="#37474F"/>
<path d="M222.917 183L225 184.16L218.083 188L216 186.84L222.917 183Z" fill="#263238"/>
<path d="M250 227L249.238 234.184L243.323 237.454V268.558L237.094 272V240.939L231 244.294V237.54L250 227Z" fill="#37474F"/>
<path d="M252 225.459L257 222V259.583L252 263V225.459Z" fill="#37474F"/>
<path fill-rule="evenodd" clip-rule="evenodd" d="M263 219.233C263.694 218.792 268.388 215.752 270.184 214.651C276.02 210.994 279 213.55 279 220.951C279 229.057 275.449 235.4 269.735 238.969L268.714 239.585V254.432L263 258V219.233ZM268.714 233.374L270.143 232.449C271.694 231.48 273.041 228.88 273.041 225.092C273.041 221.876 272.143 219.717 269.98 220.995C269.367 221.347 268.959 221.7 268.714 221.92V233.374Z" fill="#37474F"/>
<path d="M297.746 201.571L295.716 209.104C294.575 208.796 292.333 207.959 290.515 209.06C288.866 210.073 288.062 211.792 288.062 213.466C288.147 215.933 289.289 216.682 292.291 216.946C296.139 217.21 298 218.84 298 224.656C298 231.704 294.701 239.326 289.5 242.454C285.779 244.657 282.692 244.04 281 243.423L282.903 235.493C283.58 235.846 286.836 237.123 288.739 235.978C290.726 234.744 291.614 232.674 291.614 229.942C291.614 227.167 290.388 226.858 288.274 226.726C284.129 226.462 281.719 224.788 281.719 218.62C281.719 211.792 285.483 205.227 289.754 202.672C293.179 200.602 296.139 200.734 297.746 201.571Z" fill="#37474F"/>
<path d="M308.402 227.289C308.402 230.264 307.25 233.328 305.159 234.59C303.152 235.807 302 234.185 302 231.435C302 228.371 303.152 225.306 305.244 224.044C307.25 222.827 308.402 224.314 308.402 227.289ZM302.726 195.831L309 192L307.933 219.402L302.726 222.602V195.831Z" fill="#37474F"/>
<path d="M304 195.292V218L306.298 216.26L307 193L304 195.292Z" fill="#455A64"/>
<path d="M306.646 222C306.377 222.067 306.108 222.184 305.838 222.352C303.364 223.758 302 227.174 302 230.589C302 231.493 302.152 232.347 302.404 233C302.64 232.9 302.909 232.782 303.212 232.648C305.687 231.192 307 227.826 307 224.511C307 223.507 306.882 222.67 306.646 222Z" fill="#455A64"/>
<path fill-rule="evenodd" clip-rule="evenodd" d="M267.68 238.041L266.654 238.666V253.722L263 256V219.322C263.698 218.875 268.419 215.792 270.226 214.675C272.361 213.335 274.085 212.799 275.481 213.067C276.507 214.407 277 216.641 277 219.724C277 227.989 273.428 234.422 267.68 238.041ZM273.1 225.263C273.1 222.359 272.361 220.26 270.595 220.841C270.144 219.545 269.282 219.009 267.927 219.813C267.352 220.17 266.941 220.483 266.654 220.751V232.367L268.091 231.429C268.31 231.28 268.529 231.116 268.748 230.937V233.662L270.185 232.724C271.745 231.741 273.1 229.105 273.1 225.263Z" fill="#455A64"/>
<path d="M287.732 242.362C293.403 239.138 297 231.33 297 224.066C297 220.888 296.401 218.936 295.294 217.755C294.648 217.574 293.926 217.468 293.127 217.438C291.697 217.301 290.683 217.12 289.945 216.711C289.576 216.484 287.824 215.485 287.409 215.213C286.579 214.668 286.21 213.851 286.164 212.534C286.164 210.809 287.086 208.993 288.839 207.994C290.821 206.86 293.311 207.722 294.51 208.04L296.539 201.003C294.833 200.958 292.666 201.412 290.36 202.728C285.703 205.361 281.599 212.126 281.599 219.163C281.599 222.431 282.291 224.474 283.582 225.746C284.412 225.988 285.35 226.139 286.395 226.2C287.501 226.245 288.378 226.381 288.977 226.744C289.3 226.971 291.006 227.834 291.467 228.152C292.066 228.606 292.389 229.423 292.389 230.83C292.389 233.645 291.421 235.779 289.254 237.05C287.179 238.23 283.628 236.914 282.891 236.55L281 243.951C282.798 244.132 285.104 243.86 287.732 242.362Z" fill="#455A64"/>
<path d="M247 229L231 238.102V242.352L234.706 240.205V242.738L236.929 241.493V270L240.766 267.81V236.771L246.52 233.508L247 229Z" fill="#455A64"/>
<path d="M256 258.838V224L252 226.204V261L256 258.838Z" fill="#455A64"/>
<path d="M235.375 240L238 241.389L231 245V242.315L235.375 240Z" fill="#263238"/>
<path d="M248 234.381L246.049 233L241 236.619L242.951 238L248 234.381Z" fill="#263238"/>
<path d="M241.165 269L243 269.798L238 272V270.404L241.165 269Z" fill="#263238"/>
<path d="M255.179 260L257 260.798L252 263V261.404L255.179 260Z" fill="#263238"/>
<path d="M266.179 252L268 253.582L263 258V254.782L266.179 252Z" fill="#263238"/>
<path d="M279 221.028C279 229.281 275.267 235.739 269.261 239.372L268.188 240L266 238.699L267.073 238.071C273.079 234.439 276.812 227.98 276.812 219.683C276.812 216.588 276.254 214.346 275.224 213C277.713 213.449 279 216.229 279 221.028Z" fill="#263238"/>
<path d="M266 221.008L268.488 222C269.707 221.418 270.78 220.768 272 221.111L269.561 220.118C268.634 219.742 267.317 220.324 266 221.008Z" fill="#263238"/>
<path d="M266 220L268 221.304V233L266 231.696V220Z" fill="#37474F"/>
<path d="M293 208.582L295.576 210L298 201.636C297.293 201.245 296.333 201.049 295.222 201L293 208.582Z" fill="#263238"/>
<path d="M306.951 217L309 218.45L304 222V219.05L306.951 217Z" fill="#263238"/>
<path d="M176.101 310C176.545 312.471 177.389 315.339 178.055 320.457C178.766 325.442 177.656 325.751 180.898 338.502C182.852 346.135 182.452 349.18 177.7 355.577C172.637 362.46 167.396 361.004 164.02 353.327C161.133 346.753 161.311 343.709 161.355 336.958C161.4 330.163 161.355 328.222 161.089 322.839C160.867 318.074 161.266 314.853 161 311.235L176.101 310Z" fill="#37474F"/>
<path d="M178.804 328.192C177.907 321.611 177.728 314.809 177.414 310.348C176.697 300.41 178.893 280.755 177.594 265.783L152 263C152.807 268.874 159.709 295.287 162.13 311.231C162.13 311.231 162.981 332.874 164.326 342.414C164.505 343.606 165.805 344.357 166.926 343.827C170.422 342.237 175.218 342.06 178.49 343.165C179.745 343.606 181 342.723 181 341.442C180.955 337.953 179.476 333.094 178.804 328.192Z" fill="#FFBDA7"/>
<path d="M103.9 263C104.3 283.256 104.3 301.179 103.634 306.448C102.968 311.717 102.701 313.488 101.369 317.159C99.9917 320.873 97.7708 325.797 95.7276 328.172C95.7276 328.172 89.8645 334.434 91.197 335.039C92.5295 335.687 105.011 336.81 110.563 335.082C116.115 333.398 116.648 328.777 118.425 320.355C120.246 311.933 121.712 299.624 121.712 299.624C121.712 299.624 121.445 299.279 121.09 298.199C120.335 295.78 122.511 289.475 123 283.342L103.9 263Z" fill="#FFBDA7"/>
<path d="M127 313.008C126.684 314.956 124.923 317.208 124.2 320.282C123.432 323.356 122.89 326.561 122.665 330.977C122.484 335.351 122.484 336 122.484 336L121.039 335.913C121.039 335.913 121.31 329.592 121.445 326.777C121.581 324.006 121.355 321.971 120 321.581C120 321.581 120.135 312.704 127 313.008Z" fill="#263238"/>
<path d="M122.56 299C123.486 301.28 126.572 304.507 127.895 306.701C128.644 307.949 128.909 309.326 128.997 310.444C129.041 311.563 128.6 312.638 127.807 313.456C126.66 314.575 124.808 316.468 123.574 318.146C121.899 320.383 118.768 325.589 117.975 329.246C117.137 332.946 116.652 336.172 113.477 338.022C110.964 339.442 100.691 341.55 95.4888 341.938C88.3904 342.497 86.4945 339.184 89.1399 336.474C91.7412 333.763 96.2383 329.16 97.032 328.557C97.032 328.557 100.206 327.998 103.645 329.375C107.658 331.01 108.936 333.247 113.125 331.182C116.872 329.289 118.283 322.405 117.842 312.595C117.313 301.452 122.56 299 122.56 299Z" fill="#37474F"/>
<path d="M157.625 122C158.107 124.578 158.676 126.982 159.595 128.249C165.332 136.072 171.157 145.512 172.295 160.152C175.054 195.419 173.521 229.507 173.521 229.507C173.828 232.61 176.28 240.126 176.849 257.913C177.287 272.073 176.631 294.142 176.631 294.142C176.631 294.142 166.515 299.168 157.625 295.89C153.946 282.43 147.772 249.959 144.137 234.533C140.327 218.232 136.386 198.828 136.386 198.828L130.649 227.365C130.649 227.365 131.744 235.232 130.649 245.808C129.642 255.291 122.372 288.723 122.372 288.723C122.372 288.723 111.074 292.307 103.411 287.106C103.411 287.106 102.141 239.908 102.009 229.463C101.878 219.062 103.104 157.136 109.322 129.866C109.585 128.599 109.629 123.53 109.629 123.53C117.161 129.604 147.728 128.774 157.625 122Z" fill="#37474F"/>
<path d="M177 290C173.25 293.536 161.569 294.584 157 292.139L158.466 299.474C158.466 299.474 161.483 301.526 168.121 300.871C174.802 300.216 176.871 297.509 176.871 297.509L177 290Z" fill="#455A64"/>
<path d="M123 284.752C119.282 286.045 108.127 285.545 104 283L104.245 289.049C104.245 289.049 106.574 291.26 112.867 291.885C119.2 292.469 121.856 290.634 121.856 290.634L123 284.752Z" fill="#455A64"/>
<path d="M138 198.73L132.847 164.182C132.847 164.182 122.031 165.091 114 156C114 156 113.814 164.659 129.133 168.425L135.168 200.245L131.919 227L138 198.73Z" fill="#263238"/>
<path d="M109 129.395C109 129.395 116.376 134.853 133.602 133.885C150.827 132.96 159.131 127.414 158.998 127.15C158.513 125.962 158.115 124.377 157.806 122.66C157.718 122.396 157.673 122.176 157.673 122C147.691 128.823 116.862 129.659 109.265 123.541C109.265 123.541 109.221 127.634 109 129.395Z" fill="#263238"/>
<path d="M122 68.0869C122 68.0869 112.894 69.6184 106.118 76.2693C97.8318 84.4955 87.3013 93.7718 87.3013 93.7718C87.3013 93.7718 83.5898 87.1646 81.2593 79.9449C78.1519 70.3185 79.1014 67.2118 80.6119 63.7988C81.5182 61.7861 82.6835 59.1607 83.2013 57.7605C84.1077 55.0914 85.7045 52.9911 86.5676 52.0284C87.3013 51.1971 85.575 49.9719 82.5971 51.8096C80.3529 53.1661 78.7993 55.5727 77.7203 56.7103C77.1161 55.4852 76.5119 53.3411 75.174 50.672C74.613 49.4468 74.0951 48.2216 73.4477 47.0402C73.1888 46.5151 72.8004 46.0776 72.412 45.6838C72.0235 45.3337 71.5056 45.0712 70.9878 45.0274C70.1678 44.8962 69.3478 45.2462 68.7867 45.8588C68.4846 46.2526 68.312 46.6902 67.9667 46.9965C67.0604 47.8278 65.4636 47.5653 64.6436 48.4404C64.1257 48.9655 64.0394 49.7531 63.5215 50.2782C63.0899 50.7595 62.3994 50.8908 61.9247 51.3283C61.1478 52.1159 61.2341 53.5161 60.5436 54.3913C60.112 54.8726 59.3352 55.5727 59.1626 56.229C58.6878 57.673 59.3784 59.8608 59.6373 60.7359C60.1984 62.6612 61.191 65.5928 62.6152 68.0869C64.6004 71.6312 65.3341 71.9375 67.233 82.8328C68.9593 92.6779 71.5056 106.461 75.1309 113.506C78.7561 120.594 85.7045 118.232 91.6171 113.725C99.0402 108.08 117.425 94.4719 117.425 94.4719L122 67.6494" fill="#FFBDA7"/>
<path d="M75.8952 54.5909C77.1503 56.5455 77.7296 58.0909 75.4608 60.4091C74.1092 61.7727 71.068 64.6364 71.7438 67C71.7438 67 70.4888 65.7727 70.4405 64.4091C70.3439 63.0455 70.1026 62.4545 69.4268 62.8636C68.5579 63.3182 67.3511 63.2273 67.3511 63.2273C67.3511 63.2273 67.7855 64.2727 65.9029 64.8182C64.0203 65.3636 60.5447 62.9091 59 57.8182C59 57.8182 62.3308 63.9545 64.6961 63.4545C67.0132 63 66.2408 58.2727 64.8892 56.2727C64.8892 56.2727 68.3648 61.9545 70.2957 61.1364C72.2748 60.3636 71.4542 56.8182 69.4268 54C69.4268 54 72.4679 58.6818 74.2057 58C76.2814 57.2273 75.9435 55.4545 75.8952 54.5909Z" fill="#F0997A"/>
<path d="M122 68C117.247 69.0246 112.236 70.5188 104.699 77.3068C97.2054 84.0948 87.6558 92.7613 87.6558 92.7613L82.6455 82.3018C82.6455 82.3018 81.2752 84.6925 75.4941 86.2294C69.7129 87.7236 68 86.8698 68 86.8698C68 86.8698 70.2696 100.403 73.0103 108.258C75.7938 116.114 79.0484 118.846 83.3307 117.779C87.5702 116.711 93.0944 112.784 98.6614 108.899C104.228 105.014 118.017 94.6824 118.017 94.6824L122 68Z" fill="#D28669"/>
<path opacity="0.2" d="M122 68C117.247 69.0246 112.236 70.5188 104.699 77.3068C97.2054 84.0948 87.6558 92.7613 87.6558 92.7613L82.6455 82.3018C82.6455 82.3018 81.2752 84.6925 75.4941 86.2294C69.7129 87.7236 68 86.8698 68 86.8698C68 86.8698 70.2696 100.403 73.0103 108.258C75.7938 116.114 79.0484 118.846 83.3307 117.779C87.5702 116.711 93.0944 112.784 98.6614 108.899C104.228 105.014 118.017 94.6824 118.017 94.6824L122 68Z" fill="#F5A88A"/>
<path d="M97.7392 50.0142C92.9736 53.219 86.0419 52.4699 82.3353 48.3077C78.5806 44.1872 79.4471 38.1937 84.2608 34.9888C89.0264 31.784 95.9581 32.5332 99.6647 36.6537C103.419 40.8158 102.553 46.7677 97.7392 50.0142Z" fill="#455A64"/>
<path d="M92.3604 46.8128C90.383 46.0393 85.215 44.0197 80.0021 42C79.9572 44.1486 80.6313 46.3401 82.1592 48.1879C85.6195 52.4851 92.0907 53.2586 96.5397 49.9498C98.2024 48.7036 99.3709 47.0277 100 45.2229C98.4721 47.4574 96.3599 48.3598 92.3604 46.8128Z" fill="#37474F"/>
<path d="M84 45.2386L82.9665 38C78.2126 44.0057 69.9035 51.5625 63 56.1364L63.4134 59C68.3327 57.2102 76.6417 51.4432 84 45.2386Z" fill="#37474F"/>
<path d="M89 51.5589H84.4142L76.0841 58.1612C72.3398 61.1148 67.3754 61.8098 63 60.0289C68.8058 57.5096 77.0518 51.0811 83.9515 45L89 51.5589Z" fill="#455A64"/>
<path d="M74.2622 52.2305C74.2911 52.2836 74.3055 52.3278 74.3055 52.3632C74.3489 52.6022 74.6955 52.8412 75.0422 52.9474L76.6888 53.3723C77.0788 53.452 77.0788 53.6378 76.8188 53.7706L76.6021 53.8503C76.3421 54.0096 75.8222 54.0362 75.4755 53.9565L73.7422 53.5316C73.3955 53.452 73.0922 53.1864 73.0055 52.974V52.8147C72.9622 52.6022 73.1789 52.3101 73.4389 52.1508L73.6555 52.0711C73.9155 51.9384 74.2189 51.9915 74.2622 52.2305Z" fill="#BA68C8"/>
<path d="M70.9523 54.4831C70.9523 54.5537 70.9632 54.6419 70.985 54.7479C71.0177 55.2245 71.2463 55.7011 71.5077 55.86L72.7817 56.7073C73.0431 56.9191 73.0758 57.2898 72.8471 57.5546L72.7164 57.7135C72.4877 57.9783 72.0957 58.0842 71.8344 57.9254L70.5603 57.078C70.299 56.8662 70.0376 56.3896 70.005 55.9129V55.6481C69.9723 55.2245 70.103 54.589 70.3316 54.3242L70.4623 54.1653C70.691 53.8476 70.9197 54.0064 70.9523 54.4831Z" fill="#BA68C8"/>
<path d="M67.5872 56.334C67.5872 56.4131 67.6054 56.4922 67.6417 56.5713C67.6961 56.8877 68.0773 57.2832 68.5128 57.4018L70.6362 58.0346C71.0718 58.1533 71.1263 58.4301 70.7451 58.6674L70.5273 58.7861C70.1462 58.9838 69.4929 59.0629 69.0573 58.9443L66.9339 58.2719C66.4983 58.1533 66.0627 57.7973 66.0083 57.4414V57.2436C65.9538 56.8877 66.1716 56.4526 66.5527 56.2549L66.7705 56.0967C67.1517 55.8989 67.5328 56.0176 67.5872 56.334Z" fill="#BA68C8"/>
<path d="M87.6593 29C89.0659 29.5452 90.1648 30.9292 90.6484 33.0261C90.6777 33.2498 90.707 33.4735 90.7363 33.6972C90.7949 33.9767 90.8242 34.2563 90.8242 34.5359C90.8535 35.0112 90.8535 35.5005 90.8242 36.0038C90.7949 36.8985 90.663 37.8072 90.4286 38.7298C89.8571 41.2042 88.7143 43.6367 87.1758 45.6497C86.3846 46.6563 85.5055 47.537 84.5385 48.208C82.5604 49.7178 80.5824 50.1372 79 49.5501L84.4066 51.6889V51.647C86.3846 52.318 88.7143 52.0664 90.6923 50.5985C91.6154 49.9275 92.4505 49.0887 93.1978 48.1661C94.7802 46.153 95.967 43.6367 96.5824 41.1203C96.8022 40.1977 96.9341 39.275 96.978 38.3943C97.0073 37.891 97.0073 37.4018 96.978 36.9264C96.9487 36.6469 96.9194 36.3673 96.8901 36.0877C96.8608 35.864 96.8168 35.6403 96.7582 35.4167C96.2308 33.4036 94.8681 31.8938 93.1538 31.1389L93.022 31.0969C92.9634 31.069 92.8901 31.041 92.8022 31.0131L87.6593 29Z" fill="#D98D70"/>
<g opacity="0.1">
<path d="M84.6554 52.022V51.9783C86.6191 52.6765 88.9318 52.4147 90.8955 50.8874C91.8119 50.1892 92.6409 49.3165 93.3828 48.3565L87.4045 45.7383C86.6191 46.7856 85.7463 47.7019 84.7863 48.4001C82.8227 49.9711 80.859 50.4074 79.2881 49.7965L84.6554 52.022Z" fill="black"/>
</g>
<path d="M82.8243 28.7337C79.0154 32.0717 76.4221 39.1593 77.1109 44.5551C77.4351 47.2529 78.5291 49.0363 79.9879 49.7222C80.0149 49.7222 80.0419 49.7222 80.0689 49.7222C81.5276 50.3623 83.351 49.9051 85.1744 48.2589C89.0238 44.9209 91.5766 37.8332 90.8878 32.4375C90.5636 29.7396 89.5101 28.002 88.0514 27.3161C86.5926 26.6302 84.7287 27.0418 82.8243 28.7337Z" fill="#F3C6B5"/>
<g opacity="0.2">
<path d="M82.2547 29.7638C78.1528 32.9493 75.3601 39.713 76.1019 44.8622C76.451 47.4367 77.6292 49.1386 79.2001 49.7931C79.2292 49.7931 79.2583 49.7931 79.2874 49.7931C80.8583 50.404 82.822 49.9677 84.7856 48.3967C88.9311 45.2112 91.6802 38.4475 90.9384 33.2984C90.5893 30.7238 89.4548 29.0656 87.8838 28.4111C86.3129 27.7565 84.3056 28.1492 82.2547 29.7638Z" fill="black"/>
</g>
<path d="M68.4541 9C68.4541 9 70.1563 18.2095 64.8316 31.4039C63.8278 34.0162 62.693 36.2743 61.5582 38.311C56.8882 46.5022 52 50 52 50C58.2412 48.2289 65.0062 46.7678 71.9021 47.919C76.1356 48.5831 79.8455 49.6458 79.8455 49.6458C81.2857 50.2214 83.1188 49.8229 84.9519 48.3618C86.174 47.3877 87.2651 46.1037 88.1816 44.6425C88.749 43.7127 89.2727 42.6944 89.6656 41.676C90.7567 38.9752 91.2368 36.0529 90.8876 33.5292C90.5821 31.1825 89.5783 29.5886 88.138 28.9687C88.138 28.9687 84.7773 27.1091 81.2421 24.5853C75.5683 20.5119 71.6839 14.6674 68.4541 9Z" fill="#F3C6B5"/>
<g opacity="0.6">
<path d="M67.9853 9.21875C67.9853 9.21875 69.6871 18.2952 64.3634 31.299C63.3598 33.8736 62.2252 36.099 61.0906 38.1063C56.4215 46.1791 51.5342 49.6265 51.5342 49.6265C57.7742 47.881 64.538 46.441 71.4326 47.5755C75.6653 48.2301 79.3745 49.2774 79.3745 49.2774C80.8145 49.8446 82.6472 49.4519 84.48 48.0119C85.7018 47.0519 86.7927 45.7864 87.7091 44.3464C88.2764 43.43 88.8 42.4264 89.1928 41.4227C90.2837 38.7609 90.7637 35.8808 90.4146 33.3935C90.1091 31.0808 89.1055 29.5099 87.6655 28.899C87.6655 28.899 84.3054 27.0662 80.7709 24.5789C75.0981 20.5643 71.2144 14.8043 67.9853 9.21875Z" fill="#F3C6B5"/>
</g>
<g opacity="0.1">
<path d="M61.0906 38.1057C56.4215 46.1786 51.5342 49.6259 51.5342 49.6259C57.7742 47.8804 64.538 46.4404 71.4326 47.5749C75.6653 48.2295 79.3745 49.2768 79.3745 49.2768C80.8145 49.844 82.6472 49.4513 84.48 48.0113C85.7018 47.0513 86.7927 45.7858 87.7091 44.3458C81.4254 41.3349 70.6907 36.8839 61.0906 38.1057Z" fill="black"/>
</g>
<path d="M48.9209 3.91071C44.6351 7.21541 40.9616 12.129 38.3377 17.6948C34.9702 24.7825 33.3084 32.8268 34.2705 39.6971C35.9761 51.9158 45.2911 55.6553 55.0872 48.0893C57.3176 46.3935 59.373 44.2193 61.2098 41.7408C65.7579 35.6532 68.9067 27.7828 69.7376 20.3037C69.8834 19.2602 69.9708 18.2166 70 17.173C70 16.7671 70 16.3468 70 15.912C70 15.3032 69.9708 14.709 69.9125 14.1292C69.8834 13.5204 69.8251 12.9117 69.7376 12.3029C68.032 0.0842216 58.717 -3.6553 48.9209 3.91071Z" fill="#D98D70"/>
<g opacity="0.1">
<path d="M49.1793 4.198C44.9029 7.5144 41.2374 12.4454 38.6192 18.0309C35.2591 25.1437 33.6009 33.2165 34.561 40.1111C36.2628 52.3731 45.5574 56.1258 55.3321 48.533C57.5576 46.8312 59.6085 44.6493 61.4412 42.162C65.9795 36.0529 69.1213 28.1546 69.9504 20.6491C70.0959 19.6018 70.1832 18.5545 70.2122 17.5072C70.2122 17.1 70.2122 16.6781 70.2122 16.2418C70.2122 15.6308 70.1832 15.0345 70.125 14.4527C70.0959 13.8417 70.0377 13.2308 69.9504 12.6199C68.2486 0.357957 58.9539 -3.39481 49.1793 4.198Z" fill="white"/>
</g>
<g opacity="0.1">
<path d="M38.6192 18.0273C35.2591 25.1401 33.6009 33.213 34.561 40.1076C36.2628 52.3695 45.5574 56.1223 55.3321 48.5295C57.5576 46.8277 59.6085 44.6458 61.4412 42.1585C59.7394 42.5512 56.3357 41.8967 56.903 40.0203C55.2448 42.2021 53.4121 44.1222 51.4484 45.6495C48.612 47.8313 45.8629 48.9659 43.4629 48.9659C41.4119 48.9222 39.7101 48.0495 38.3574 46.304C37.0483 44.6458 36.1755 42.2021 35.7828 39.2785C34.9537 33.4311 36.2628 26.4493 38.9683 20.1219C38.9683 20.1219 38.0955 19.9474 38.6192 18.0273Z" fill="black"/>
</g>
<path d="M50.0271 5.28862C45.6828 8.67812 41.9528 14.0045 39.4516 19.9031C36.7309 26.2859 35.4144 33.329 36.2482 39.2277C36.6431 42.177 37.5208 44.6421 38.8372 46.3148C40.1976 48.0756 41.9089 48.956 43.9714 49C46.3849 49 49.1494 47.8555 52.0017 45.6545C53.9764 44.1138 55.8194 42.177 57.4869 39.976C58.1013 39.125 58.701 38.2446 59.2861 37.3348C60.2954 35.7501 61.173 34.0334 62.0068 32.2726C62.153 31.9204 62.3139 31.5683 62.4895 31.2161C62.7528 30.5998 62.9868 29.9836 63.1916 29.3673C64.0253 27.2984 64.6397 25.1414 65.1224 23.0285C65.1224 22.9991 65.1224 22.9698 65.1224 22.9404C65.4442 21.5025 65.6782 20.0939 65.8245 18.7146C65.9122 17.7168 65.9707 16.7337 66 15.7653C66 15.3544 66 14.9436 66 14.5327C65.9707 14.0632 65.9415 13.579 65.9122 13.0801C65.883 12.6399 65.8391 12.1997 65.7806 11.7595C65.3418 8.81018 64.4641 6.34509 63.1477 4.67235C60.2515 0.886669 55.3367 1.15079 50.0271 5.28862Z" fill="#D98D70"/>
<g opacity="0.4">
<path d="M49.4839 5.63503C45.1639 8.99507 41.4548 14.2751 38.9675 20.1225C36.262 26.4498 34.9529 33.4317 35.782 39.279C36.1747 42.2027 37.0474 44.6464 38.3565 46.3046C39.7093 48.05 41.4111 48.9228 43.4621 48.9664C45.8621 48.9664 48.6112 47.8318 51.4476 45.65C53.4113 44.1227 55.244 42.2027 56.9022 40.0209C57.5131 39.1772 58.1095 38.3045 58.6913 37.4026C59.695 35.8317 60.5677 34.1299 61.3968 32.3844C61.5422 32.0353 61.7022 31.6862 61.8768 31.3371C62.1386 30.7262 62.3713 30.1153 62.575 29.5044C63.4041 27.4534 64.015 25.3152 64.495 23.2207C64.495 23.1916 64.495 23.1625 64.495 23.1334C64.815 21.7079 65.0477 20.3116 65.1932 18.9443C65.2805 17.9552 65.3387 16.9806 65.3677 16.0206C65.3677 15.6133 65.3677 15.206 65.3677 14.7988C65.3387 14.3333 65.3096 13.8533 65.2805 13.3587C65.2514 12.9224 65.2077 12.486 65.1496 12.0496C64.7132 9.12598 63.8405 6.68231 62.5313 5.02411C59.6513 1.27135 54.764 1.53317 49.4839 5.63503Z" fill="#864C36"/>
</g>
<path d="M54.6798 20L50 31.9439C52.5562 33.2056 55.7416 34.6776 58.0225 38C58.206 37.7196 58.3895 37.4393 58.573 37.1589C59.4382 35.6449 60.264 34.0047 61.0112 32.3224C61.1423 31.986 61.2734 31.6495 61.4045 31.3131C61.6405 30.7243 61.8633 30.1355 62.073 29.5467C62.8202 27.5701 63.3708 25.5093 63.8034 23.4907C63.8034 23.4626 63.8034 23.4346 63.8034 23.4065C63.882 23.0981 63.9476 22.8037 64 22.5234C60.1067 23.1121 54.6798 20 54.6798 20Z" fill="#37474F"/>
<path d="M48.6992 32.1656C49.422 33.3209 50.6146 33.2765 51.8795 32.0323H51.9156C53.9394 30.0771 55.2766 26.0334 54.9513 22.9229V22.8785C54.8429 22.0342 54.6261 21.3232 54.3369 20.8344C53.578 19.6791 52.3854 19.7235 51.1205 20.9677H51.0844C49.0606 22.8785 47.7234 26.9666 48.0487 30.0771L48.0848 30.1215C48.1571 30.9658 48.3739 31.6768 48.6992 32.1656Z" fill="#F3C6B5"/>
<path d="M73.7102 49C73.6632 49 74.1332 49.6414 74.1802 49.6815C74.3368 49.922 74.4778 50.1625 74.6031 50.4031C74.8851 50.7772 75.1358 51.1647 75.3551 51.5656C75.7311 52.1669 76.0601 52.7682 76.342 53.3695C76.53 53.7303 76.671 54.1312 76.812 54.532C76.8433 54.6657 76.8747 54.7993 76.906 54.9329C76.906 55.0933 76.906 55.2536 76.953 55.3739C76.953 55.454 77 55.4941 77 55.5743C76.953 55.6545 76.953 55.7747 76.906 55.8549C76.8433 56.0687 76.7807 56.2825 76.718 56.4963C76.5927 56.9239 76.4517 57.3381 76.295 57.739C76.201 57.9261 76.1071 58.1265 76.0131 58.3403C75.9661 58.3804 75.9661 58.5007 75.9191 58.5408C75.8721 58.6209 75.8251 58.6209 75.7781 58.7011C75.6841 58.8615 75.5901 59.0084 75.4961 59.1421C75.2768 59.4628 75.0261 59.7567 74.7441 60.024C74.5091 60.2645 74.2272 60.505 73.8982 60.6654C73.5692 60.7856 73.1462 60.8658 72.7702 60.7055C72.6292 60.6654 72.4413 60.5852 72.3003 60.6253C72.2063 60.6654 72.1593 60.7055 72.1123 60.7456C71.7833 61.1865 71.3603 61.5874 70.7963 61.7477C69.9504 61.9883 69.6214 61.6676 68.8225 61.3068C68.1645 62.1085 66.5196 62.5896 65.7676 62.0684C65.6266 62.3891 64.7337 62.79 64.4047 62.9904C64.0757 63.1909 60.5979 60.1843 59.564 59.1421C59.282 58.8615 59 58.4205 59 58.4205C59 58.4205 59.235 57.6989 59.423 57.4584C59.517 57.3782 59.658 57.3381 59.799 57.2981C59.8303 57.2713 59.8773 57.2312 59.9399 57.1778C60.0339 57.1243 60.1279 57.0709 60.2219 57.0174C60.4413 56.8838 60.6762 56.7502 60.9269 56.6166C61.2089 56.4295 61.5065 56.2424 61.8198 56.0554C62.1645 55.8683 62.5091 55.6678 62.8538 55.454C63.2611 55.2135 63.6527 54.973 64.0287 54.7325C64.436 54.4919 64.8433 54.2514 65.2507 54.0109C65.6893 53.7437 66.1279 53.4898 66.5666 53.2492C66.9739 52.982 67.3969 52.7281 67.8355 52.4876C68.2428 52.2471 68.6501 51.9932 69.0574 51.7259C69.4648 51.5121 69.8564 51.285 70.2324 51.0445C70.6084 50.8307 70.9687 50.6169 71.3133 50.4031C71.6266 50.216 71.9243 50.0423 72.2063 49.8819C72.4569 49.7216 72.7076 49.5746 72.9582 49.441C73.1149 49.3341 73.2715 49.2272 73.4282 49.1203C73.5222 49.0935 73.6162 49.0534 73.7102 49Z" fill="#FFBDA7"/>
<path d="M141.31 65L156.806 69.8067C159.484 70.7243 169.536 76.7982 166.025 91.9174C164.883 96.8989 163.259 103.89 161.854 110.882C160.757 116.257 164.752 126.526 168 142.912C168 142.912 154.699 153.443 128.273 150.472C108.08 148.199 105.885 140.683 105.885 140.683C106.455 121.981 108.124 114.771 108.08 107.648C108.08 107.648 105.138 104.065 105.007 97.7292C104.875 91.0872 106.631 87.4603 112.645 79.9444C118.352 72.7344 121.864 68.9764 121.864 68.9764L141.31 65Z" fill="#FAFAFA"/>
<path d="M129.005 67C128.269 67.2591 122.08 68.857 122.08 68.857C117.32 73.5642 108.838 84.3174 106.89 88.0746C104.164 93.2568 104.25 99.3892 104.077 107.897C103.947 115.281 102 136.831 102 147.584C102.779 150.435 111.348 153.76 111.348 153.76C111.694 157.517 109.573 116.232 111.564 96.5821C114.161 79.3079 127.1 70.4548 130 68.4683L129.005 67Z" fill="#EEAE95"/>
<path d="M148.965 65L148.66 68.104C141.793 86.1596 143.14 96.3897 143.054 108.281C142.88 133.288 145.922 160.874 145.922 160.874C145.922 160.874 165.002 162.623 172 153.092C172 153.092 167.914 137.834 165.524 123.364C164.133 114.795 169.827 93.8103 168.349 81.3506C167.741 76.1919 165.785 70.9894 161.917 69.7653C158.7 68.7598 155.919 67.9291 155.919 67.9291L148.965 65Z" fill="#EEAE95"/>
<path d="M117.771 40.4978L116.264 39.9251C109.618 35.8722 110.46 26.9736 112.365 22.4361C116.663 12.2599 128.139 9 135.14 9C148.433 9 154.991 14.2423 155.965 21.1145C157.782 21.0705 159.776 21.9956 161.283 24.815C162.612 27.1938 164.65 34.1542 160.662 42.7004C157.117 50.2775 149.585 54.1542 149.186 59L117.771 40.4978Z" fill="#37474F"/>
<path d="M152.351 53.5098C154.683 53.9447 156.619 52.8139 158.07 51.2917C161.282 47.8559 161.634 44.333 160.182 41.9845C158.994 40.0274 156.003 38.7226 153.891 40.0274C151.603 41.3756 151.515 42.5064 150.635 44.0721C149.755 45.6813 146.455 45.4638 145.795 39.0705C145.135 33.1122 144.299 27.6757 141.395 24.9357C137.083 20.8475 133.167 23.1091 129.999 25.7186C128.239 22.8916 124.455 20.978 122.123 22.5872C119.351 24.4573 117.503 27.3278 116.315 38.5486C115.083 50.0305 117.679 57.2501 120.319 59.2507C122.343 60.7294 124.587 61.4253 128.943 61.6862L128.371 68.7754C128.371 68.7754 120.539 82.1709 120.407 92C120.407 92 124.367 85.9546 135.719 77.2128C143.243 71.3414 147.951 67.9056 147.951 67.9056L149.491 51.6397C149.491 51.6397 150.107 53.0314 152.351 53.5098Z" fill="#FFBDA7"/>
<path d="M120.033 33L123 32.2835C122.853 31.3801 122.06 30.8505 121.237 31.0374C120.415 31.2243 119.856 32.1277 120.033 33Z" fill="#263238"/>
<path d="M134 33.4626L138.767 34C139.368 33.6199 138.767 33.2005 137.425 33.0564C136.082 32.8991 134.555 33.0826 134 33.4626Z" fill="#263238"/>
<path d="M135.872 49L129 51.046C129.45 53.2315 131.536 54.5335 133.704 53.7895C135.585 53.1385 136.322 51.1855 135.872 49Z" fill="#B16668"/>
<path d="M132 53.9133C132.269 51.5506 133.846 49.8556 135.692 50.0097C135.769 50.0097 135.885 50.0611 136 50.0611C135.923 51.8074 135.192 53.2456 133.846 53.7592C133.192 54.0161 132.577 54.0674 132 53.9133Z" fill="#FFA8A7"/>
<path d="M130 36L127.542 47L122 43.9804L130 36Z" fill="#F0997A"/>
<path d="M137.991 39.0541C137.939 39.6052 136.994 40.0251 135.892 39.9988C134.79 39.9464 133.95 39.474 134.002 38.9229C134.107 38.3718 135.052 37.9519 136.154 38.0044C137.256 38.0307 138.096 38.503 137.991 39.0541Z" fill="#263238"/>
<path d="M122.993 38.1052C122.954 39.2091 122.245 40.0502 121.419 39.9977C120.592 39.9451 119.962 38.9463 120.002 37.8424C120.08 36.7384 120.789 35.9499 121.616 36.0025C122.442 36.055 123.072 37.0013 122.993 38.1052Z" fill="#263238"/>
<path d="M129.221 62.1547C133.941 62.7434 140.162 60.5358 142.324 58.8189C143.603 57.7887 145.279 55.1887 147 52C147 52 145.588 59.5547 142.368 61.566C137.515 64.7057 129 65 129 65L129.221 62.1547Z" fill="#F0997A"/>
<path d="M172.839 164.848C176.154 165.859 180.392 161.551 181.567 160.012C182.742 158.517 181.231 154.956 180.518 151.923C179.805 148.933 180.56 143.834 176.951 145.24C173.385 146.691 165.916 156.759 172.839 164.848Z" fill="#F0997A"/>
<path d="M162.561 70C172.416 72.1142 173.389 71.8059 177.999 81.5403C183.413 92.8603 191.111 111.36 193.015 115.677C194.96 119.993 196.821 123.165 191.619 129.816C186.966 135.718 174.066 152.808 172.036 155.231C170.217 157.389 171.909 165.273 178.126 164.348C178.126 164.348 174.658 168.092 170.386 166.683C168.187 166.022 164.634 164.26 161.419 157.213C159.389 152.764 161.081 149.284 164.169 144.351C167.848 138.449 175.842 121.975 175.842 121.975L161.293 92.8162C161.293 92.8162 155.371 77.7963 162.561 70Z" fill="#FFBDA7"/>
<path d="M160.828 70C158.278 72.4025 154.179 81.4548 159.872 94.497L175.219 121.311L170.073 131.607C170.073 131.607 172.396 135.683 176.176 138.214C180.001 140.745 183.553 139.844 183.553 139.844C183.553 139.844 191.751 131.264 194.666 127.531C197.58 123.756 198.081 122.683 194.347 114.232C190.795 106.08 179.455 81.2832 177.041 77.5078C174.582 73.6896 170.164 71.759 160.828 70Z" fill="#D28669"/>
<path opacity="0.2" d="M160.828 70C158.278 72.4025 154.179 81.4548 159.872 94.497L175.219 121.311L170.073 131.607C170.073 131.607 172.396 135.683 176.176 138.214C180.001 140.745 183.553 139.844 183.553 139.844C183.553 139.844 191.751 131.264 194.666 127.531C197.58 123.756 198.081 122.683 194.347 114.232C190.795 106.08 179.455 81.2832 177.041 77.5078C174.582 73.6896 170.164 71.759 160.828 70Z" fill="#F5A88A"/>
<path d="M262.154 13.0698C256.509 9.8059 248.779 10.2911 240.18 15.3192C222.983 25.4197 209 49.9872 209 70.1881C209 80.2885 212.518 87.3456 218.12 90.6536C220.465 92.065 226.457 95.5053 228.802 96.9168C234.448 100.181 242.221 99.7396 250.82 94.6673C268.06 84.5669 282 59.9994 282 39.7985C282 29.7422 278.526 22.6851 272.924 19.333C270.579 17.9657 264.543 14.4371 262.154 13.0698Z" fill="#EEAE95"/>
<path opacity="0.1" d="M210.169 59C209.433 62.6354 209 66.2259 209 69.6818C209 79.9597 212.506 87.1408 218.091 90.5069C220.429 91.9432 226.403 95.4439 228.74 96.8801C234.368 100.201 242.117 99.7526 250.688 94.5912C253.589 92.8857 256.359 90.7314 259 88.2629L210.169 59Z" fill="black"/>
<path d="M272.933 71.298C278.546 61.4702 282 50.3757 282 40.3732C282 20.3682 268.141 12.2876 251 22.2901C233.859 32.2926 220 56.6218 220 76.6268C220 96.6318 233.859 104.712 251 94.7099C255.274 92.2202 259.376 88.8133 263.089 84.7948L275.74 87.1098C277.38 87.4155 278.675 85.7994 278.071 84.2706L272.933 71.298Z" fill="#EEAE95"/>
<path opacity="0.3" d="M272.933 71.298C278.546 61.4702 282 50.3757 282 40.3732C282 20.3682 268.141 12.2876 251 22.2901C233.859 32.2926 220 56.6218 220 76.6268C220 96.6318 233.859 104.712 251 94.7099C255.274 92.2202 259.376 88.8133 263.089 84.7948L275.74 87.1098C277.38 87.4155 278.675 85.7994 278.071 84.2706L272.933 71.298Z" fill="white"/>
<path d="M250.285 78.8142C250.141 78.8722 249.984 78.9157 249.812 78.9448C248.608 79.1624 247.361 78.7272 246.544 77.8132L234.98 65.1481C233.605 63.6684 233.691 61.3182 235.152 59.969C236.657 58.5763 238.935 58.6633 240.311 60.1431L248.049 68.6299L263.009 33.2462C263.826 31.3747 265.933 30.5043 267.781 31.2877C269.63 32.1146 270.49 34.2472 269.716 36.1187L252.563 76.7686C252.133 77.7261 251.316 78.5095 250.285 78.8142Z" fill="#FAFAFA"/>
</svg>
