<svg width="112" height="18" viewBox="0 0 112 18" fill="none" xmlns="http://www.w3.org/2000/svg">
<path d="M17.5728 12.2259C17.0792 12.464 15.9075 12.7568 14.4257 12.7568C10.1622 12.7568 7.9668 10.085 7.9668 6.57242C7.9668 2.3635 10.9676 0.0390625 14.7002 0.0390625C16.1456 0.0390625 17.2437 0.313595 17.7374 0.588127L17.1519 2.78352C16.6029 2.54536 15.8165 2.32626 14.8102 2.32626C12.6148 2.32626 10.8949 3.66168 10.8949 6.40614C10.8949 8.87606 12.3585 10.4315 14.8284 10.4315C15.6883 10.4315 16.6029 10.2669 17.1701 10.0288L17.5728 12.2241V12.2259Z" fill="#FF7F50"/>
<path d="M23.6832 0.21875V4.95768H28.2758V0.21875H31.0566V12.5511H28.2758V7.39124H23.6832V12.5511H20.9023V0.21875H23.6832Z" fill="white"/>
<path d="M42.2924 7.33581H37.7544V10.263H42.8224V12.5502H34.9727V0.21875H42.566V2.50594H37.7535V5.06767H42.2915V7.33668L42.2924 7.33581Z" fill="white"/>
<path d="M56.4937 11.987C55.6337 12.2797 54.0056 12.6824 52.3766 12.6824C50.1258 12.6824 48.4976 12.1152 47.3631 11.0361C46.2468 9.95614 45.625 8.34618 45.625 6.53444C45.6432 2.4355 48.6258 0.09375 52.6693 0.09375C54.2611 0.09375 55.4874 0.404656 56.091 0.679188L55.5056 2.93001C54.8283 2.6191 54.0047 2.39913 52.6511 2.39913C50.3276 2.39913 48.5522 3.69818 48.5522 6.38808C48.5522 9.07798 50.1621 10.4316 52.4493 10.4316C53.0712 10.4316 53.5838 10.358 53.8029 10.267V7.66894H51.9003V5.49173H56.4928V11.987H56.4937Z" fill="white"/>
<path d="M70.4351 11.987C69.5752 12.2797 67.947 12.6824 66.318 12.6824C64.0672 12.6824 62.439 12.1152 61.3045 11.0361C60.1882 9.95614 59.5664 8.34618 59.5664 6.53444C59.5846 2.4355 62.5672 0.09375 66.6107 0.09375C68.2025 0.09375 69.4288 0.404656 70.0324 0.679188L69.447 2.93001C68.7697 2.6191 67.9461 2.39913 66.5925 2.39913C64.269 2.39913 62.4936 3.69818 62.4936 6.38808C62.4936 9.07798 64.1036 10.4316 66.3907 10.4316C67.0126 10.4316 67.5252 10.358 67.7444 10.267V7.66894H65.8417V5.49173H70.4343V11.987H70.4351Z" fill="white"/>
<path d="M85.3647 6.25796C85.3647 10.3197 82.9311 12.7532 79.3085 12.7532C75.6859 12.7532 73.5078 9.99056 73.5078 6.45887C73.5078 2.92719 75.8868 0 79.5103 0C83.1338 0 85.3655 2.83626 85.3655 6.25796H85.3647ZM76.4541 6.40431C76.4541 8.83787 77.5886 10.5396 79.4549 10.5396C81.3212 10.5396 82.4193 8.74693 82.4193 6.34975C82.4193 4.11712 81.3766 2.21445 79.4549 2.21445C77.5331 2.21445 76.4541 4.008 76.4541 6.40431Z" fill="white"/>
<path d="M91.441 0.21875V7.29944C91.441 9.44027 92.2646 10.5193 93.6736 10.5193C95.0827 10.5193 95.9426 9.49483 95.9426 7.29944V0.21875H98.7235V7.13489C98.7235 10.9411 96.8026 12.752 93.5818 12.752C90.361 12.752 88.6602 11.0139 88.6602 7.09852V0.21875H91.441Z" fill="white"/>
<path d="M104.998 2.5605H101.668V0.21875H111.146V2.5605H107.779V12.5511H104.998V2.5605Z" fill="white"/>
<path d="M9.16696 11.4568L8.12166 10.0703L0 15.4189L1.94771 17.9997L9.16696 11.4568Z" fill="#FF7F50"/>
</svg>
