<svg width="33" height="33" viewBox="0 0 33 33" fill="none" xmlns="http://www.w3.org/2000/svg">
<path d="M12.9199 1.82145C14.6888 -0.607149 18.3112 -0.60715 20.0801 1.82145C21.0584 3.16462 22.7063 3.84718 24.3478 3.58919C27.3159 3.12273 29.8773 5.6841 29.4108 8.6522C29.1528 10.2937 29.8354 11.9416 31.1785 12.9199C33.6071 14.6888 33.6071 18.3112 31.1785 20.0801C29.8354 21.0584 29.1528 22.7063 29.4108 24.3478C29.8773 27.3159 27.3159 29.8773 24.3478 29.4108C22.7063 29.1528 21.0584 29.8354 20.0801 31.1785C18.3112 33.6071 14.6888 33.6071 12.9199 31.1785C11.9416 29.8354 10.2937 29.1528 8.6522 29.4108C5.6841 29.8773 3.12273 27.3159 3.58919 24.3478C3.84718 22.7063 3.16462 21.0584 1.82145 20.0801C-0.607149 18.3112 -0.60715 14.6888 1.82145 12.9199C3.16462 11.9416 3.84718 10.2937 3.58919 8.6522C3.12273 5.6841 5.6841 3.12273 8.6522 3.58919C10.2937 3.84718 11.9416 3.16462 12.9199 1.82145Z" fill="url(#paint0_linear_513_3248)"/>
<path d="M10.2116 23.9856V15.822H9V11.9136H12.8784C12.7727 11.7914 12.7008 11.6539 12.6628 11.5009C12.6248 11.348 12.6058 11.1874 12.6058 11.0192C12.6058 10.4583 12.8021 9.98156 13.1948 9.58894C13.5874 9.19631 14.0641 9 14.625 9C14.9125 9 15.1789 9.06031 15.4241 9.18094C15.6693 9.30169 15.8884 9.463 16.0817 9.66487C16.2749 9.45525 16.4942 9.29206 16.7394 9.17531C16.9846 9.05844 17.2509 9 17.5384 9C18.0994 9 18.5762 9.19631 18.9688 9.58894C19.3614 9.98156 19.5578 10.4583 19.5578 11.0192C19.5578 11.1856 19.5368 11.3437 19.4949 11.4937C19.4531 11.6437 19.3831 11.7837 19.2851 11.9136H23.25V15.822H22.0384V23.9856H10.2116ZM17.5384 10.125C17.285 10.125 17.0726 10.2107 16.9013 10.3821C16.7299 10.5534 16.6442 10.7658 16.6442 11.0192C16.6442 11.2726 16.7299 11.4849 16.9013 11.6563C17.0726 11.8278 17.285 11.9136 17.5384 11.9136C17.7918 11.9136 18.0042 11.8278 18.1757 11.6563C18.3471 11.4849 18.4328 11.2726 18.4328 11.0192C18.4328 10.7658 18.3471 10.5534 18.1757 10.3821C18.0042 10.2107 17.7918 10.125 17.5384 10.125ZM13.7308 11.0192C13.7308 11.2726 13.8165 11.4849 13.9879 11.6563C14.1592 11.8278 14.3716 11.9136 14.625 11.9136C14.8784 11.9136 15.0908 11.8278 15.2621 11.6563C15.4335 11.4849 15.5192 11.2726 15.5192 11.0192C15.5192 10.7658 15.4335 10.5534 15.2621 10.3821C15.0908 10.2107 14.8784 10.125 14.625 10.125C14.3716 10.125 14.1592 10.2107 13.9879 10.3821C13.8165 10.5534 13.7308 10.7658 13.7308 11.0192ZM10.125 13.0384V14.6972H15.5625V13.0384H10.125ZM15.5625 22.8606V15.822H11.3364V22.8606H15.5625ZM16.6875 22.8606H20.9136V15.822H16.6875V22.8606ZM22.125 14.6972V13.0384H16.6875V14.6972H22.125Z" fill="white"/>
<defs>
<linearGradient id="paint0_linear_513_3248" x1="3.16498" y1="3.49077" x2="28.2011" y2="27.4277" gradientUnits="userSpaceOnUse">
<stop stop-color="#64FB69"/>
<stop offset="1" stop-color="#2AB12F"/>
</linearGradient>
</defs>
</svg>
