<svg width="41" height="41" viewBox="0 0 41 41" fill="none" xmlns="http://www.w3.org/2000/svg">
<g filter="url(#filter0_d_513_1388)">
<path d="M16.9199 1.82145C18.6888 -0.607149 22.3112 -0.60715 24.0801 1.82145C25.0584 3.16462 26.7063 3.84718 28.3478 3.58919C31.3159 3.12273 33.8773 5.6841 33.4108 8.6522C33.1528 10.2937 33.8354 11.9416 35.1785 12.9199C37.6071 14.6888 37.6071 18.3112 35.1785 20.0801C33.8354 21.0584 33.1528 22.7063 33.4108 24.3478C33.8773 27.3159 31.3159 29.8773 28.3478 29.4108C26.7063 29.1528 25.0584 29.8354 24.0801 31.1785C22.3112 33.6071 18.6888 33.6071 16.9199 31.1785C15.9416 29.8354 14.2937 29.1528 12.6522 29.4108C9.6841 29.8773 7.12273 27.3159 7.58919 24.3478C7.84718 22.7063 7.16462 21.0584 5.82145 20.0801C3.39285 18.3112 3.39285 14.6888 5.82145 12.9199C7.16462 11.9416 7.84718 10.2937 7.58919 8.6522C7.12273 5.6841 9.6841 3.12273 12.6522 3.58919C14.2937 3.84718 15.9416 3.16462 16.9199 1.82145Z" fill="url(#paint0_linear_513_1388)"/>
<path d="M11 26.26H29V8.26H11V26.26Z" fill="black"/>
</g>
<defs>
<filter id="filter0_d_513_1388" x="0" y="0" width="41" height="41" filterUnits="userSpaceOnUse" color-interpolation-filters="sRGB">
<feFlood flood-opacity="0" result="BackgroundImageFix"/>
<feColorMatrix in="SourceAlpha" type="matrix" values="0 0 0 0 0 0 0 0 0 0 0 0 0 0 0 0 0 0 127 0" result="hardAlpha"/>
<feOffset dy="4"/>
<feGaussianBlur stdDeviation="2"/>
<feComposite in2="hardAlpha" operator="out"/>
<feColorMatrix type="matrix" values="0 0 0 0 0 0 0 0 0 0 0 0 0 0 0 0 0 0 0.25 0"/>
<feBlend mode="normal" in2="BackgroundImageFix" result="effect1_dropShadow_513_1388"/>
<feBlend mode="normal" in="SourceGraphic" in2="effect1_dropShadow_513_1388" result="shape"/>
</filter>
<linearGradient id="paint0_linear_513_1388" x1="7.16498" y1="3.49077" x2="32.2011" y2="27.4277" gradientUnits="userSpaceOnUse">
<stop stop-color="#64FB69"/>
<stop offset="1" stop-color="#2AB12F"/>
</linearGradient>
</defs>
</svg>
