<svg width="140" height="23" viewBox="0 0 140 23" fill="none" xmlns="http://www.w3.org/2000/svg">
<path d="M21.9892 15.2963C21.3716 15.5943 19.9056 15.9605 18.0517 15.9605C12.7175 15.9605 9.9707 12.6178 9.9707 8.22299C9.9707 2.95703 13.7251 0.0488281 18.3952 0.0488281C20.2036 0.0488281 21.5775 0.392308 22.1951 0.735787L21.4626 3.48254C20.7757 3.18457 19.7918 2.91044 18.5328 2.91044C15.786 2.91044 13.6341 4.58124 13.6341 8.01496C13.6341 11.1052 15.4653 13.0512 18.5555 13.0512C19.6315 13.0512 20.7757 12.8453 21.4854 12.5474L21.9892 15.2941V15.2963Z" fill="#FF7F50"/>
<path d="M21.9892 15.2963C21.3716 15.5943 19.9056 15.9605 18.0517 15.9605C12.7175 15.9605 9.9707 12.6178 9.9707 8.22299C9.9707 2.95703 13.7251 0.0488281 18.3952 0.0488281C20.2036 0.0488281 21.5775 0.392308 22.1951 0.735787L21.4626 3.48254C20.7757 3.18457 19.7918 2.91044 18.5328 2.91044C15.786 2.91044 13.6341 4.58124 13.6341 8.01496C13.6341 11.1052 15.4653 13.0512 18.5555 13.0512C19.6315 13.0512 20.7757 12.8453 21.4854 12.5474L21.9892 15.2941V15.2963Z" fill="white"/>
<path d="M21.9892 15.2963C21.3716 15.5943 19.9056 15.9605 18.0517 15.9605C12.7175 15.9605 9.9707 12.6178 9.9707 8.22299C9.9707 2.95703 13.7251 0.0488281 18.3952 0.0488281C20.2036 0.0488281 21.5775 0.392308 22.1951 0.735787L21.4626 3.48254C20.7757 3.18457 19.7918 2.91044 18.5328 2.91044C15.786 2.91044 13.6341 4.58124 13.6341 8.01496C13.6341 11.1052 15.4653 13.0512 18.5555 13.0512C19.6315 13.0512 20.7757 12.8453 21.4854 12.5474L21.9892 15.2941V15.2963Z" fill="url(#paint0_linear_340_3765)"/>
<path d="M29.636 0.273438V6.20252H35.3819V0.273438H38.8611V15.7029H35.3819V9.24725H29.636V15.7029H26.1567V0.273438H29.636Z" fill="#1B1B1B"/>
<path d="M52.9178 9.1779H47.2401V12.8402H53.5809V15.7018H43.7598V0.273438H53.2602V3.13505H47.239V6.34013H52.9167V9.17899L52.9178 9.1779Z" fill="#1B1B1B"/>
<path d="M70.6823 14.9905C69.6064 15.3567 67.5693 15.8606 65.5312 15.8606C62.7151 15.8606 60.6781 15.1509 59.2586 13.8008C57.862 12.4496 57.084 10.4353 57.084 8.16858C57.1067 3.04022 60.8384 0.110352 65.8974 0.110352C67.889 0.110352 69.4232 0.49934 70.1785 0.842819L69.446 3.65892C68.5987 3.26993 67.5682 2.99471 65.8747 2.99471C62.9676 2.99471 60.7463 4.62001 60.7463 7.98546C60.7463 11.3509 62.7606 13.0445 65.6222 13.0445C66.4002 13.0445 67.0416 12.9524 67.3158 12.8386V9.58801H64.9353V6.86401H70.6812V14.9905H70.6823Z" fill="#1B1B1B"/>
<path d="M88.1271 14.9905C87.0512 15.3567 85.0141 15.8606 82.976 15.8606C80.1599 15.8606 78.1229 15.1509 76.7035 13.8008C75.3068 12.4496 74.5288 10.4353 74.5288 8.16858C74.5516 3.04022 78.2832 0.110352 83.3423 0.110352C85.3338 0.110352 86.8681 0.49934 87.6233 0.842819L86.8908 3.65892C86.0435 3.26993 85.0131 2.99471 83.3195 2.99471C80.4124 2.99471 78.1911 4.62001 78.1911 7.98546C78.1911 11.3509 80.2054 13.0445 83.067 13.0445C83.845 13.0445 84.4865 12.9524 84.7606 12.8386V9.58801H82.3801V6.86401H88.126V14.9905H88.1271Z" fill="#1B1B1B"/>
<path d="M106.807 7.8296C106.807 12.9114 103.762 15.9561 99.2297 15.9561C94.6972 15.9561 91.9722 12.4996 91.9722 8.08098C91.9722 3.66234 94.9486 0 99.4821 0C104.016 0 106.808 3.54857 106.808 7.8296H106.807ZM95.6583 8.01272C95.6583 11.0574 97.0778 13.1866 99.4128 13.1866C101.748 13.1866 103.122 10.9437 103.122 7.94446C103.122 5.15111 101.817 2.77059 99.4128 2.77059C97.0084 2.77059 95.6583 5.01459 95.6583 8.01272Z" fill="#1B1B1B"/>
<path d="M114.408 0.273438V9.13239C114.408 11.8109 115.438 13.161 117.201 13.161C118.964 13.161 120.04 11.8791 120.04 9.13239V0.273438H123.519V8.92652C123.519 13.6886 121.116 15.9543 117.086 15.9543C113.057 15.9543 110.929 13.7797 110.929 8.88102V0.273438H114.408Z" fill="#1B1B1B"/>
<path d="M131.372 3.20331H127.206V0.273438H139.064V3.20331H134.851V15.7029H131.372V3.20331Z" fill="#1B1B1B"/>
<path d="M11.4692 14.3324L10.1614 12.5977L0 19.2896L2.43686 22.5185L11.4692 14.3324Z" fill="#FF7F50"/>
<path d="M11.4692 14.3324L10.1614 12.5977L0 19.2896L2.43686 22.5185L11.4692 14.3324Z" fill="white"/>
<path d="M11.4692 14.3324L10.1614 12.5977L0 19.2896L2.43686 22.5185L11.4692 14.3324Z" fill="url(#paint1_linear_340_3765)"/>
<defs>
<linearGradient id="paint0_linear_340_3765" x1="17.9777" y1="0.0488281" x2="17.9777" y2="15.9605" gradientUnits="userSpaceOnUse">
<stop stop-color="#EA655E"/>
<stop offset="1" stop-color="#D4463E"/>
</linearGradient>
<linearGradient id="paint1_linear_340_3765" x1="7.51232" y1="12.5977" x2="7.51232" y2="22.5185" gradientUnits="userSpaceOnUse">
<stop stop-color="#EA655E"/>
<stop offset="1" stop-color="#D4463E"/>
</linearGradient>
</defs>
</svg>
