<svg width="44" height="22" viewBox="0 0 44 22" fill="none" xmlns="http://www.w3.org/2000/svg">
<path d="M12.944 0H39.9427C40.4796 0 40.9183 0.401723 40.9692 0.915502L43.989 20.8396C44.0715 21.3931 43.6819 21.9069 43.1187 21.9879C43.0695 21.9966 43.0187 21.9983 42.9713 21.9983V22H15.9726C15.4356 22 14.9952 21.5983 14.9461 21.0845L11.9263 1.16035C11.8438 0.606911 12.2333 0.0931063 12.7966 0.0120697C12.8457 0.0034492 12.8966 0.00172412 12.9457 0.00172412V0H12.944ZM15.8006 2.02759L28.2464 12.1722L37.6161 2.02759H15.8006ZM5.19379 19.281C4.62354 19.281 4.16204 18.8275 4.16204 18.2672C4.16204 17.7068 4.6235 17.2534 5.19379 17.2534H10.2279C10.7964 17.2534 11.2596 17.7068 11.2596 18.2672C11.2596 18.8258 10.7982 19.281 10.2279 19.281H5.19379ZM3.11277 12.0155C2.54427 12.0155 2.08102 11.5621 2.08102 11.0017C2.08102 10.4414 2.54248 9.98789 3.11277 9.98789H9.12611C9.69461 9.98789 10.1579 10.4413 10.1579 11.0017C10.1579 11.562 9.69641 12.0155 9.12611 12.0155H3.11277ZM1.03175 4.75C0.4615 4.75 0 4.29657 0 3.7362C0 3.1776 0.461456 2.72241 1.03175 2.72241H8.02388C8.59238 2.72241 9.05563 3.17583 9.05563 3.7362C9.05563 4.29657 8.59418 4.75 8.02388 4.75H1.03175Z" fill="#9C1D26"/>
</svg>
