<svg width="53" height="33" viewBox="0 0 53 33" fill="none" xmlns="http://www.w3.org/2000/svg">
<g filter="url(#filter0_d_340_2473)">
<path d="M9.19379 20.2812C8.62354 20.2812 8.16204 19.8278 8.16204 19.2674C8.16204 18.7071 8.6235 18.2536 9.19379 18.2536H14.2279C14.7964 18.2536 15.2596 18.7071 15.2596 19.2674C15.2596 19.826 14.7982 20.2812 14.2279 20.2812H9.19379ZM7.11277 13.0157C6.54427 13.0157 6.08102 12.5623 6.08102 12.0019C6.08102 11.4416 6.54248 10.9881 7.11277 10.9881H13.1261C13.6946 10.9881 14.1579 11.4416 14.1579 12.0019C14.1579 12.5623 13.6964 13.0157 13.1261 13.0157H7.11277ZM5.03175 5.75025C4.4615 5.75025 4 5.29682 4 4.73645C4 4.17785 4.46146 3.72266 5.03175 3.72266H12.0239C12.5924 3.72266 13.0556 4.17608 13.0556 4.73645C13.0556 5.29682 12.5942 5.75025 12.0239 5.75025H5.03175Z" fill="#9C1D26"/>
<path d="M42.3609 0H20.2489C19.2852 0.000424078 18.3609 0.382322 17.6785 1.06204C16.9961 1.74176 16.6112 2.66389 16.6082 3.62644L19.1082 17.9037C19.1082 18.0204 19.1082 18.1403 19.1261 18.2602L19.1358 18.3526L16.0256 24.6737C16.0032 24.7153 15.9952 24.7631 16.0028 24.8097C16.0104 24.8563 16.0333 24.8991 16.0678 24.9314C16.1003 24.966 16.1433 24.9891 16.1902 24.997C16.2371 25.0049 16.2853 24.9972 16.3274 24.9751L23.3265 21.5383H44.8609C45.8257 21.537 46.7505 21.1537 47.4327 20.4723C48.1149 19.791 48.4987 18.8673 48.5 17.9037L46 3.62644C45.9966 2.6643 45.6118 1.74267 44.9299 1.06308C44.2479 0.383504 43.3243 0.00127905 42.3609 0ZM25.8121 12.2648C25.5153 12.2648 25.2251 12.1769 24.9783 12.0122C24.7315 11.8475 24.5392 11.6134 24.4256 11.3395C24.312 11.0656 24.2823 10.7642 24.3402 10.4735C24.3981 10.1827 24.541 9.91566 24.7509 9.70605C24.9608 9.49642 25.2282 9.35367 25.5193 9.29584C25.8104 9.238 26.1122 9.26769 26.3864 9.38113C26.6606 9.49458 26.895 9.68669 27.0599 9.93318C27.2248 10.1797 27.3128 10.4695 27.3128 10.7659C27.3124 11.1633 27.1541 11.5443 26.8728 11.8253C26.5914 12.1063 26.21 12.2643 25.8121 12.2648ZM33.8041 12.2648C33.5073 12.2648 33.2171 12.1769 32.9704 12.0122C32.7236 11.8475 32.5312 11.6134 32.4176 11.3395C32.304 11.0656 32.2743 10.7642 32.3322 10.4735C32.3901 10.1827 32.5331 9.91566 32.7429 9.70605C32.9528 9.49642 33.2202 9.35367 33.5113 9.29584C33.8025 9.238 34.1042 9.26769 34.3784 9.38113C34.6527 9.49458 34.887 9.68669 35.0519 9.93318C35.2168 10.1797 35.3049 10.4695 35.3049 10.7659C35.3044 11.1633 35.1462 11.5443 34.8648 11.8253C34.5835 12.1063 34.202 12.2643 33.8041 12.2648ZM41.7978 12.2648C41.501 12.2648 41.2108 12.1769 40.964 12.0122C40.7172 11.8475 40.5249 11.6134 40.4113 11.3395C40.2977 11.0656 40.268 10.7642 40.3259 10.4735C40.3838 10.1827 40.5267 9.91566 40.7366 9.70605C40.9465 9.49642 41.2139 9.35367 41.505 9.29584C41.7961 9.238 42.0979 9.26769 42.3721 9.38113C42.6463 9.49458 42.8807 9.68669 43.0456 9.93318C43.2105 10.1797 43.2985 10.4695 43.2985 10.7659C43.2981 11.1633 43.1398 11.5443 42.8585 11.8253C42.5771 12.1063 42.1957 12.2643 41.7978 12.2648Z" fill="#9C1D26"/>
</g>
<defs>
<filter id="filter0_d_340_2473" x="0" y="0" width="52.5" height="33" filterUnits="userSpaceOnUse" color-interpolation-filters="sRGB">
<feFlood flood-opacity="0" result="BackgroundImageFix"/>
<feColorMatrix in="SourceAlpha" type="matrix" values="0 0 0 0 0 0 0 0 0 0 0 0 0 0 0 0 0 0 127 0" result="hardAlpha"/>
<feOffset dy="4"/>
<feGaussianBlur stdDeviation="2"/>
<feComposite in2="hardAlpha" operator="out"/>
<feColorMatrix type="matrix" values="0 0 0 0 0 0 0 0 0 0 0 0 0 0 0 0 0 0 0.25 0"/>
<feBlend mode="normal" in2="BackgroundImageFix" result="effect1_dropShadow_340_2473"/>
<feBlend mode="normal" in="SourceGraphic" in2="effect1_dropShadow_340_2473" result="shape"/>
</filter>
</defs>
</svg>
