<svg width="56" height="56" viewBox="0 0 56 56" fill="none" xmlns="http://www.w3.org/2000/svg">
<circle cx="28" cy="28" r="28" fill="#951B24"/>
<mask id="mask0_340_1121" style="mask-type:alpha" maskUnits="userSpaceOnUse" x="0" y="0" width="56" height="56">
<circle cx="28" cy="28" r="28" fill="#FFDCAD"/>
</mask>
<g mask="url(#mask0_340_1121)">
<path d="M31.3088 35.8148C36.1794 34.4619 39.7647 29.9972 39.7647 24.7207C39.7647 18.3619 34.6235 13.2207 28.2647 13.2207C21.9059 13.2207 16.7647 18.3619 16.7647 24.7207C16.7647 29.9972 20.35 34.4619 25.2206 35.8148C16.6294 37.2354 10 44.7442 10 53.8089V57.8678C10 58.6119 10.6088 59.2207 11.3529 59.2207H45.1765C45.9206 59.2207 46.5294 58.6119 46.5294 57.8678V53.8089C46.5294 44.7442 39.9 37.2354 31.3088 35.8148Z" fill="white" stroke="white" stroke-miterlimit="10"/>
</g>
</svg>
